<svg width="20" height="20" viewBox="0 0 20 20" fill="none" xmlns="http://www.w3.org/2000/svg">
<path d="M9.99984 1.6665C14.6023 1.6665 18.3332 5.39734 18.3332 9.99984C18.3332 14.6023 14.6023 18.3332 9.99984 18.3332C5.39734 18.3332 1.6665 14.6023 1.6665 9.99984C1.6665 5.39734 5.39734 1.6665 9.99984 1.6665ZM9.99984 3.33317C8.23173 3.33317 6.53603 4.03555 5.28579 5.28579C4.03555 6.53603 3.33317 8.23173 3.33317 9.99984C3.33317 11.7679 4.03555 13.4636 5.28579 14.7139C6.53603 15.9641 8.23173 16.6665 9.99984 16.6665C11.7679 16.6665 13.4636 15.9641 14.7139 14.7139C15.9641 13.4636 16.6665 11.7679 16.6665 9.99984C16.6665 8.23173 15.9641 6.53603 14.7139 5.28579C13.4636 4.03555 11.7679 3.33317 9.99984 3.33317ZM9.99984 4.99984C10.2039 4.99986 10.401 5.0748 10.5535 5.21043C10.706 5.34607 10.8035 5.53296 10.8273 5.73567L10.8332 5.83317V9.65484L13.089 11.9107C13.2385 12.0606 13.3252 12.2619 13.3317 12.4735C13.3382 12.6851 13.2638 12.8913 13.1238 13.0501C12.9838 13.2089 12.7885 13.3084 12.5778 13.3285C12.367 13.3486 12.1565 13.2877 11.989 13.1582L11.9107 13.089L9.41067 10.589C9.28115 10.4594 9.19797 10.2907 9.174 10.109L9.1665 9.99984V5.83317C9.1665 5.61216 9.2543 5.40019 9.41058 5.24391C9.56686 5.08763 9.77882 4.99984 9.99984 4.99984Z" fill="#C01823" fill-opacity="0.7"/>
</svg>
