<svg width="24" height="24" viewBox="0 0 24 24" fill="none" xmlns="http://www.w3.org/2000/svg">
<path d="M17 12H4V16C4 17.0609 4.42143 18.0783 5.17157 18.8284C5.92172 19.5786 6.93913 20 8 20H13C14.0609 20 15.0783 19.5786 15.8284 18.8284C16.5786 18.0783 17 17.0609 17 16V12ZM17 12H19C19.5304 12 20.0391 12.2107 20.4142 12.5858C20.7893 12.9609 21 13.4696 21 14V15C21 15.5304 20.7893 16.0391 20.4142 16.4142C20.0391 16.7893 19.5304 17 19 17H17M13 9C13 9 14 8 13.5 7L12.5 5C12 4 13 3 13 3M8.64 9C8.64 9 9.64 8 9.14 7L8.14 5C7.64 4 8.64 3 8.64 3" stroke="#C01823" stroke-opacity="0.7" stroke-width="2" stroke-linecap="round" stroke-linejoin="round"/>
</svg>
