<svg width="24" height="24" viewBox="0 0 24 24" fill="none" xmlns="http://www.w3.org/2000/svg">
<path d="M12 1.25C8.27344 1.25 5.25 4.12766 5.25 7.67188C5.25 11.75 9.75 18.2127 11.4023 20.4448C11.4709 20.5391 11.5608 20.6157 11.6647 20.6686C11.7686 20.7215 11.8835 20.749 12 20.749C12.1165 20.749 12.2314 20.7215 12.3353 20.6686C12.4392 20.6157 12.5291 20.5391 12.5977 20.4448C14.25 18.2136 18.75 11.7533 18.75 7.67188C18.75 4.12766 15.7266 1.25 12 1.25Z" stroke="#231F20" stroke-width="2" stroke-linecap="round" stroke-linejoin="round"/>
<path d="M12 10.25C13.2426 10.25 14.25 9.24264 14.25 8C14.25 6.75736 13.2426 5.75 12 5.75C10.7574 5.75 9.75 6.75736 9.75 8C9.75 9.24264 10.7574 10.25 12 10.25Z" stroke="#231F20" stroke-width="2" stroke-linecap="round" stroke-linejoin="round"/>
</svg>
