<svg width="30" height="30" viewBox="0 0 30 30" fill="none" xmlns="http://www.w3.org/2000/svg">
<rect width="30" height="30" rx="15" fill="#FCF8F3"/>
<rect x="0.5" y="0.5" width="29" height="29" rx="14.5" stroke="#C01823" stroke-opacity="0.7"/>
<path fill-rule="evenodd" clip-rule="evenodd" d="M16.9875 17.8716C15.8643 18.769 14.4401 19.2023 13.0074 19.0825C11.5747 18.9626 10.2423 18.2988 9.28382 17.2272C8.32532 16.1556 7.81351 14.7577 7.8535 13.3206C7.89349 11.8835 8.48224 10.5162 9.49884 9.49958C10.5154 8.48297 11.8827 7.89422 13.3199 7.85423C14.757 7.81424 16.1549 8.32606 17.2265 9.28456C18.298 10.2431 18.9619 11.5755 19.0817 13.0082C19.2016 14.4409 18.7683 15.8651 17.8709 16.9883L22.1675 21.2841C22.2289 21.3413 22.2782 21.4103 22.3123 21.487C22.3465 21.5636 22.3649 21.6464 22.3664 21.7303C22.3678 21.8142 22.3524 21.8976 22.321 21.9754C22.2895 22.0533 22.2427 22.1239 22.1834 22.1833C22.124 22.2426 22.0534 22.2894 21.9755 22.3209C21.8977 22.3523 21.8143 22.3677 21.7304 22.3663C21.6465 22.3648 21.5638 22.3464 21.4871 22.3122C21.4104 22.2781 21.3414 22.2288 21.2842 22.1674L16.9875 17.8716ZM10.3825 16.5699C9.7709 15.9582 9.35433 15.179 9.18546 14.3306C9.01659 13.4822 9.10301 12.6028 9.43379 11.8035C9.76457 11.0042 10.3249 10.321 11.0439 9.84002C11.7629 9.35908 12.6083 9.10208 13.4733 9.1015C14.3384 9.10092 15.1841 9.35678 15.9038 9.83675C16.6234 10.3167 17.1847 10.9992 17.5165 11.7981C17.8484 12.5969 17.936 13.4762 17.7683 14.3248C17.6005 15.1734 17.185 15.9532 16.5742 16.5658L16.57 16.5699L16.5659 16.5733C15.7451 17.3921 14.6329 17.8517 13.4735 17.8511C12.3141 17.8505 11.2024 17.3897 10.3825 16.5699Z" fill="#C01823" fill-opacity="0.7"/>
</svg>
