<svg width="30" height="30" viewBox="0 0 30 30" fill="none" xmlns="http://www.w3.org/2000/svg">
<rect width="30" height="30" rx="15" fill="#FCF8F3"/>
<rect x="0.5" y="0.5" width="29" height="29" rx="14.5" stroke="#C01823" stroke-opacity="0.7"/>
<path d="M15 6.25C15.8073 6.25 16.582 6.35417 17.3242 6.5625C18.0664 6.77083 18.763 7.0638 19.4141 7.44141C20.0651 7.81901 20.6543 8.27474 21.1816 8.80859C21.709 9.34245 22.1647 9.93164 22.5488 10.5762C22.9329 11.2207 23.2292 11.9173 23.4375 12.666C23.6458 13.4147 23.75 14.1927 23.75 15C23.75 15.8073 23.6458 16.582 23.4375 17.3242C23.2292 18.0664 22.9362 18.763 22.5586 19.4141C22.181 20.0651 21.7253 20.6543 21.1914 21.1816C20.6576 21.709 20.0684 22.1647 19.4238 22.5488C18.7793 22.9329 18.0827 23.2292 17.334 23.4375C16.5853 23.6458 15.8073 23.75 15 23.75C14.1927 23.75 13.418 23.6458 12.6758 23.4375C11.9336 23.2292 11.237 22.9362 10.5859 22.5586C9.9349 22.181 9.3457 21.7253 8.81836 21.1914C8.29102 20.6576 7.83529 20.0684 7.45117 19.4238C7.06706 18.7793 6.77083 18.0827 6.5625 17.334C6.35417 16.5853 6.25 15.8073 6.25 15C6.25 14.1927 6.35417 13.418 6.5625 12.6758C6.77083 11.9336 7.0638 11.237 7.44141 10.5859C7.81901 9.9349 8.27474 9.3457 8.80859 8.81836C9.34245 8.29102 9.93164 7.83529 10.5762 7.45117C11.2207 7.06706 11.9173 6.77083 12.666 6.5625C13.4147 6.35417 14.1927 6.25 15 6.25ZM15 22.5C15.6901 22.5 16.3542 22.4121 16.9922 22.2363C17.6302 22.0605 18.2259 21.8066 18.7793 21.4746C19.3327 21.1426 19.8405 20.752 20.3027 20.3027C20.765 19.8535 21.1556 19.349 21.4746 18.7891C21.7936 18.2292 22.0443 17.6302 22.2266 16.9922C22.4089 16.3542 22.5 15.6901 22.5 15C22.5 14.3099 22.4121 13.6458 22.2363 13.0078C22.0605 12.3698 21.8066 11.7741 21.4746 11.2207C21.1426 10.6673 20.752 10.1595 20.3027 9.69727C19.8535 9.23503 19.349 8.8444 18.7891 8.52539C18.2292 8.20638 17.6302 7.95573 16.9922 7.77344C16.3542 7.59115 15.6901 7.5 15 7.5C14.3099 7.5 13.6458 7.58789 13.0078 7.76367C12.3698 7.93945 11.7741 8.19336 11.2207 8.52539C10.6673 8.85742 10.1595 9.24805 9.69727 9.69727C9.23503 10.1465 8.8444 10.651 8.52539 11.2109C8.20638 11.7708 7.95573 12.3698 7.77344 13.0078C7.59115 13.6458 7.5 14.3099 7.5 15C7.5 15.6901 7.58789 16.3542 7.76367 16.9922C7.93945 17.6302 8.19336 18.2259 8.52539 18.7793C8.85742 19.3327 9.24805 19.8405 9.69727 20.3027C10.1465 20.765 10.651 21.1556 11.2109 21.4746C11.7708 21.7936 12.3698 22.0443 13.0078 22.2266C13.6458 22.4089 14.3099 22.5 15 22.5ZM15 10C15.6901 10 16.3379 10.1302 16.9434 10.3906C17.5488 10.651 18.0794 11.0059 18.5352 11.4551C18.9909 11.9043 19.349 12.4349 19.6094 13.0469C19.8698 13.6589 20 14.3099 20 15C20 15.6901 19.8698 16.3379 19.6094 16.9434C19.349 17.5488 18.9941 18.0794 18.5449 18.5352C18.0957 18.9909 17.5651 19.349 16.9531 19.6094C16.3411 19.8698 15.6901 20 15 20C14.3099 20 13.6621 19.8698 13.0566 19.6094C12.4512 19.349 11.9206 18.9941 11.4648 18.5449C11.0091 18.0957 10.651 17.5651 10.3906 16.9531C10.1302 16.3411 10 15.6901 10 15C10 14.3099 10.1302 13.6621 10.3906 13.0566C10.651 12.4512 11.0059 11.9206 11.4551 11.4648C11.9043 11.0091 12.4349 10.651 13.0469 10.3906C13.6589 10.1302 14.3099 10 15 10ZM15 18.75C15.5143 18.75 15.9993 18.6523 16.4551 18.457C16.9108 18.2617 17.3079 17.9948 17.6465 17.6562C17.985 17.3177 18.2552 16.9206 18.457 16.4648C18.6589 16.0091 18.7565 15.5208 18.75 15C18.75 14.4857 18.6523 14.0007 18.457 13.5449C18.2617 13.0892 17.9948 12.6921 17.6562 12.3535C17.3177 12.015 16.9173 11.7448 16.4551 11.543C15.9928 11.3411 15.5078 11.2435 15 11.25C14.4792 11.25 13.9941 11.3477 13.5449 11.543C13.0957 11.7383 12.6986 12.0052 12.3535 12.3438C12.0085 12.6823 11.7383 13.0827 11.543 13.5449C11.3477 14.0072 11.25 14.4922 11.25 15C11.25 15.5208 11.3477 16.0059 11.543 16.4551C11.7383 16.9043 12.0052 17.3014 12.3438 17.6465C12.6823 17.9915 13.0794 18.2617 13.5352 18.457C13.9909 18.6523 14.4792 18.75 15 18.75ZM15 13.75C15.1758 13.75 15.3385 13.7826 15.4883 13.8477C15.638 13.9128 15.7682 14.0007 15.8789 14.1113C15.9896 14.222 16.0807 14.3555 16.1523 14.5117C16.224 14.668 16.2565 14.8307 16.25 15C16.25 15.1758 16.2174 15.3385 16.1523 15.4883C16.0872 15.638 15.9993 15.7682 15.8887 15.8789C15.778 15.9896 15.6445 16.0807 15.4883 16.1523C15.332 16.224 15.1693 16.2565 15 16.25C14.8242 16.25 14.6615 16.2174 14.5117 16.1523C14.362 16.0872 14.2318 15.9993 14.1211 15.8887C14.0104 15.778 13.9193 15.6445 13.8477 15.4883C13.776 15.332 13.7435 15.1693 13.75 15C13.75 14.8242 13.7826 14.6615 13.8477 14.5117C13.9128 14.362 14.0007 14.2318 14.1113 14.1211C14.222 14.0104 14.3555 13.9193 14.5117 13.8477C14.668 13.776 14.8307 13.7435 15 13.75Z" fill="#C01823" fill-opacity="0.7"/>
</svg>
