<svg width="170" height="13" viewBox="0 0 170 13" fill="none" xmlns="http://www.w3.org/2000/svg">
<path d="M110.637 12.9724C110.537 12.9724 110.503 12.9379 110.437 12.8575L104.567 4.52649H104.532V8.48504C104.532 11.3285 104.981 11.7768 105.946 11.8611L106.429 11.8956C106.529 11.9109 106.544 11.9454 106.544 12.0451V12.6275C106.544 12.7425 106.529 12.7617 106.429 12.7617H102.122C102.022 12.7617 102.007 12.7463 102.007 12.6275V12.0451C102.007 11.9454 102.022 11.9109 102.122 11.8956L102.356 11.8611C103.022 11.7768 103.386 11.3131 103.386 8.48504V3.96317C103.386 2.64876 103.386 2.49931 102.953 2.46482L102.137 2.415C102.037 2.39967 102.022 2.38051 102.022 2.28087V1.66391C102.022 1.54895 102.037 1.52979 102.137 1.52979H105.429C105.529 1.52979 105.578 1.56428 105.643 1.66391L110.733 9.08284H110.767V5.80641C110.767 2.96299 110.319 2.52996 109.338 2.43033L108.87 2.38051C108.77 2.36518 108.77 2.34602 108.77 2.24639V1.66391C108.77 1.54895 108.77 1.52979 108.87 1.52979H113.143C113.243 1.52979 113.258 1.54512 113.258 1.66391V2.24639C113.258 2.34602 113.243 2.36135 113.143 2.38051L112.928 2.43033C112.281 2.52996 111.913 2.97832 111.913 5.80641V12.8575C111.913 12.9418 111.863 12.9724 111.748 12.9724H110.633H110.637Z" fill="#67686B"/>
<path d="M118.036 12.9723C115.143 12.9723 113.614 11.244 113.614 8.59984C113.614 5.9557 115.143 3.94385 117.936 3.94385C119.883 3.94385 121.627 4.97468 121.627 7.58434V7.74912C121.627 8.2128 121.493 8.34692 120.91 8.34692H116.105V8.49638C116.105 10.4086 117.036 11.6732 118.848 11.6732C119.764 11.6732 120.446 11.3551 120.945 10.9259C121.029 10.8608 121.06 10.8761 121.129 10.9413L121.512 11.3053C121.562 11.3551 121.596 11.4049 121.527 11.4892C120.661 12.386 119.699 12.9684 118.036 12.9684V12.9723ZM117.802 4.85972C116.587 4.85972 116.124 5.75643 116.124 7.45405H118.634C119.201 7.45405 119.331 7.31993 119.331 6.87157C119.331 5.52651 118.783 4.85972 117.802 4.85972Z" fill="#67686B"/>
<path d="M142.147 5.02426C141.813 5.08941 141.614 5.2082 141.43 5.62207C141.296 5.92097 141.146 6.31951 140.947 7.00162L139.119 12.8571C139.085 12.9414 139.069 12.972 138.954 12.972H137.709C137.609 12.972 137.575 12.9567 137.544 12.8571L135.682 7.25454H135.632L133.67 12.8571C133.635 12.9414 133.62 12.972 133.505 12.972H132.275C132.175 12.972 132.141 12.9567 132.11 12.8571L129.984 6.48812C129.55 5.19288 129.386 5.10857 128.918 5.02426L128.704 4.97444C128.604 4.95911 128.589 4.93995 128.589 4.84032V4.29233C128.589 4.17737 128.604 4.1582 128.704 4.1582H132.896C132.996 4.1582 133.011 4.17353 133.011 4.29233V4.84032C133.011 4.93995 132.996 4.97444 132.896 4.97444L132.547 5.00893C132.298 5.02426 132.183 5.09323 132.183 5.34232C132.183 5.55692 132.267 5.90948 132.432 6.48812L133.513 10.2474H133.528L134.659 7.02078C134.758 6.70655 134.942 6.1394 134.942 5.65655C134.942 5.32316 134.843 5.03959 134.509 5.00893L134.245 4.97444C134.145 4.97444 134.13 4.93995 134.13 4.84032V4.29233C134.13 4.17737 134.145 4.1582 134.245 4.1582H137.97C138.069 4.1582 138.069 4.17353 138.069 4.29233V4.84032C138.069 4.93995 138.069 4.95528 137.97 4.97444L137.621 5.00893C137.372 5.02426 137.238 5.12389 137.238 5.37681C137.238 5.5914 137.337 5.9248 137.521 6.49195L138.901 10.2512H138.916L139.782 6.95946C139.916 6.46129 140.016 5.89414 140.016 5.51093C140.016 5.24652 139.932 5.04725 139.617 5.01276L139.284 4.97828C139.184 4.97828 139.169 4.94379 139.169 4.84415V4.29616C139.169 4.1812 139.184 4.16204 139.284 4.16204H142.342C142.442 4.16204 142.442 4.17737 142.442 4.29616V4.84415C142.442 4.94379 142.426 4.95912 142.342 4.97828L142.158 5.0281L142.147 5.02426Z" fill="#67686B"/>
<path d="M147.008 12.9723C144.065 12.9723 142.651 11.2938 142.651 8.61517C142.651 5.93654 144.165 3.94385 147.142 3.94385C150.12 3.94385 151.499 5.57249 151.499 8.26645C151.499 10.9604 149.97 12.9723 147.008 12.9723ZM147.073 4.85972C145.594 4.85972 145.195 6.40789 145.195 8.58452C145.195 10.581 145.579 12.0602 147.058 12.0602C148.537 12.0602 148.97 10.4967 148.97 8.32011C148.97 6.30826 148.571 4.85972 147.073 4.85972Z" fill="#67686B"/>
<path d="M152.476 12.7576C152.376 12.7576 152.361 12.7423 152.361 12.6235V12.0755C152.361 11.9758 152.376 11.9605 152.476 11.9414L153.173 11.9069C153.606 11.8724 153.622 11.7229 153.622 10.4085V6.86767C153.622 5.13939 153.438 5.03976 152.989 5.00528L152.472 4.97078C152.372 4.97078 152.357 4.9363 152.357 4.83666V4.28866C152.357 4.1737 152.372 4.15455 152.472 4.15455H155.515C155.614 4.15455 155.664 4.20436 155.664 4.33848V5.9173H155.714C156.262 4.75235 157.059 3.93994 158.143 3.93994C159.124 3.93994 159.692 4.67187 159.692 5.65289C159.692 6.41931 159.259 6.76803 158.527 6.76803C157.795 6.76803 157.446 6.31968 157.446 5.83683C157.446 5.70271 157.48 5.52261 157.511 5.38848H157.411C156.795 5.38848 156.365 5.97096 155.913 6.7872V10.4124C155.913 11.7268 155.928 11.8915 156.361 11.9107L157.442 11.9452C157.542 11.9452 157.557 11.9797 157.557 12.0793V12.6273C157.557 12.7423 157.542 12.7614 157.442 12.7614H152.468L152.476 12.7576Z" fill="#67686B"/>
<path d="M166.395 12.7587C166.28 12.7587 166.246 12.7242 166.181 12.6246L163.851 8.83467C163.387 9.31751 163.218 9.61642 163.218 10.1797V10.4786C163.218 11.7241 163.234 11.8773 163.667 11.908L164.199 11.9425C164.299 11.9578 164.314 11.977 164.314 12.0766V12.6246C164.314 12.7396 164.299 12.7587 164.199 12.7587H159.777C159.677 12.7587 159.662 12.7434 159.662 12.6246V12.0766C159.662 11.977 159.677 11.9617 159.777 11.9425L160.475 11.908C160.908 11.8735 160.923 11.7241 160.923 10.4097V2.79145C160.923 1.46171 160.908 1.3276 160.475 1.29311L159.777 1.25861C159.677 1.24328 159.662 1.22413 159.662 1.1245V0.576497C159.662 0.461534 159.677 0.442383 159.777 0.442383H163.069C163.168 0.442383 163.218 0.492193 163.218 0.626316V8.35949H163.234C163.467 7.91114 163.931 7.3938 164.897 6.39745C165.345 5.93377 165.564 5.70002 165.564 5.40112C165.564 5.21718 165.449 5.05239 165.115 5.01791L164.701 4.96809C164.602 4.96809 164.586 4.9336 164.586 4.83396V4.28597C164.586 4.17101 164.602 4.15185 164.701 4.15185H168.675C168.775 4.15185 168.775 4.16718 168.775 4.28597V4.83396C168.775 4.9336 168.775 4.96809 168.675 4.96809L168.392 5.01791C167.775 5.10221 167.326 5.36662 166.246 6.43194L165.464 7.1792L167.476 10.4212C168.208 11.6014 168.392 11.8697 168.74 11.9003L168.974 11.9348C169.074 11.9502 169.089 11.9693 169.089 12.069V12.6169C169.089 12.7319 169.089 12.7511 168.989 12.7511H166.395V12.7587Z" fill="#67686B"/>
<path d="M128.562 11.5788L128.214 11.2148C128.114 11.1305 128.08 11.1304 128.014 11.1994C127.8 11.4485 127.482 11.6631 127.068 11.6631C126.171 11.6631 125.888 10.9657 125.888 9.8352V5.27884H127.765C127.865 5.27884 127.899 5.26351 127.899 5.14472V4.27866C127.899 4.17903 127.865 4.1637 127.765 4.1637H125.888V1.55405C125.888 1.45441 125.872 1.41992 125.803 1.41992H125.539C125.424 1.41992 125.389 1.45441 125.29 1.53488C124.841 1.86827 124.259 2.20167 123.711 2.4316C123.627 2.46609 123.596 2.5159 123.596 2.61553V4.1637L122.45 4.27866C122.351 4.29399 122.335 4.31315 122.335 4.41279V5.14472C122.335 5.24819 122.351 5.27118 122.435 5.27501H124.822L123.596 5.9188V10.2491C123.596 12.1766 124.742 12.9775 126.026 12.9775C127.091 12.9775 127.988 12.5637 128.585 11.7627C128.65 11.6784 128.635 11.6478 128.57 11.5788H128.562Z" fill="#67686B"/>
<path d="M5.4799 12.7808H0.13489C0.0337224 12.7808 0 12.7639 0 12.6628V12.3424C0 12.2412 0.0337224 12.2244 0.13489 12.2244L0.893645 12.1907C1.29831 12.1738 1.31518 12.0726 1.31518 10.7912V3.3891C1.31518 2.10765 1.29831 2.00648 0.893645 1.98962L0.13489 1.9559C0.0337224 1.9559 0 1.93904 0 1.83787V1.51751C0 1.41634 0.0337224 1.39948 0.13489 1.39948H5.54734C7.41894 1.39948 9.56031 2.04021 9.56031 4.63684C9.56031 7.18288 7.65499 8.0428 5.24384 8.0428H3.9118V10.7912C3.9118 12.0726 3.92867 12.1907 4.33333 12.1907L5.4799 12.2244C5.58106 12.2244 5.61479 12.2412 5.61479 12.3424V12.6628C5.61479 12.7639 5.58106 12.7808 5.4799 12.7808ZM4.80545 7.38521C6.20493 7.38521 6.84566 6.6939 6.84566 4.70428C6.84566 2.54604 6.12062 2.05707 4.87289 2.05707H3.9118V7.38521H4.80545Z" fill="#C01823"/>
<path d="M15.399 12.7808H10.3913C10.2901 12.7808 10.2564 12.7639 10.2564 12.6628V12.3761C10.2564 12.275 10.2901 12.2581 10.3913 12.2581L11.0994 12.2244C11.521 12.2244 11.5378 12.1232 11.5378 10.8418V6.3061C11.5378 4.70428 11.3861 4.63684 10.9645 4.61997L10.3913 4.60311C10.2901 4.58625 10.2564 4.56939 10.2564 4.46822V4.18158C10.2564 4.08041 10.2901 4.06355 10.3913 4.06355H13.4937C13.6117 4.06355 13.6455 4.131 13.6455 4.26589V5.76654H13.6961C14.2356 4.56939 15.0112 3.84436 16.0398 3.84436C17.0177 3.84436 17.6753 4.63684 17.6753 5.59792C17.6753 6.32296 17.2201 6.64332 16.495 6.64332C15.7531 6.64332 15.4665 6.20493 15.4665 5.71595C15.4665 5.39559 15.5845 5.05837 15.7868 4.77172C15.7194 4.75486 15.6351 4.738 15.5676 4.738C14.8932 4.738 14.3536 5.32814 13.8647 6.35668V10.8418C13.8647 12.1232 13.8815 12.2244 14.2862 12.2244L15.399 12.2581C15.5002 12.2581 15.5339 12.275 15.5339 12.3761V12.6628C15.5339 12.7639 15.5002 12.7808 15.399 12.7808Z" fill="#C01823"/>
<path d="M26.837 8.22828C26.837 10.9935 25.2183 13 22.2845 13C19.4012 13 17.8668 11.297 17.8668 8.58236C17.8668 5.81712 19.4855 3.84436 22.4194 3.84436C25.3026 3.84436 26.837 5.49676 26.837 8.22828ZM24.2741 8.27886C24.2741 5.88457 23.8694 4.45136 22.3688 4.45136C20.8681 4.45136 20.4466 5.96887 20.4466 8.54864C20.4466 10.9261 20.8513 12.393 22.3519 12.393C23.8526 12.393 24.2741 10.8249 24.2741 8.27886Z" fill="#C01823"/>
<path d="M32.6715 12.7808H27.6469C27.5457 12.7808 27.512 12.7639 27.512 12.6628V12.3761C27.512 12.275 27.5457 12.2581 27.6469 12.2581L28.3719 12.2244C28.7934 12.2244 28.8103 12.1232 28.8103 10.8418V4.77172H27.6469C27.5457 4.77172 27.512 4.75486 27.512 4.6537V4.26589C27.512 4.16472 27.5457 4.14786 27.6469 4.131L28.8103 4.06355V3.40597C28.8103 1.56809 30.2266 0.303502 32.3512 0.303502C33.582 0.303502 34.7623 0.944228 34.7623 2.00648C34.7623 2.64721 34.3239 2.95071 33.6495 2.95071C32.9244 2.95071 32.6378 2.56291 32.6378 2.07393C32.6378 1.68612 32.7727 1.3489 32.975 0.994811C32.8233 0.944228 32.6041 0.893644 32.4355 0.893644C31.4744 0.893644 31.1203 1.56809 31.1203 2.76524V4.06355H33.0256C33.1268 4.06355 33.1605 4.08041 33.1605 4.18158V4.6537C33.1605 4.75486 33.1268 4.77172 33.0256 4.77172H31.1203V10.8418C31.1203 12.1232 31.1371 12.2244 31.5587 12.2244L32.6715 12.2581C32.7727 12.2581 32.7895 12.275 32.7895 12.3761V12.6628C32.7895 12.7639 32.7727 12.7808 32.6715 12.7808Z" fill="#C01823"/>
<path d="M41.4708 10.3528C41.1673 11.7691 39.987 13 37.8794 13C35.131 13 33.3943 11.3139 33.3943 8.5655C33.3943 5.93515 34.9624 3.84436 37.7614 3.84436C39.7341 3.84436 41.5214 4.9572 41.5214 7.45266V7.57069C41.5214 7.99222 41.3865 8.12711 40.8638 8.12711H35.9572V8.43061C35.9572 10.5383 36.4968 12.1064 38.4527 12.1064C39.8016 12.1064 40.6109 11.3307 40.9313 10.2516C40.965 10.1505 40.9987 10.1167 41.0999 10.1336L41.3865 10.1842C41.4877 10.201 41.5046 10.2516 41.4708 10.3528ZM39.1946 6.87938C39.1946 5.21012 38.6887 4.4345 37.6265 4.4345C36.3787 4.4345 35.9572 5.58106 35.9572 7.5201H38.4527C39.0428 7.5201 39.1946 7.38521 39.1946 6.87938Z" fill="#C01823"/>
<path d="M49.1269 10.2685C49.1269 11.9377 47.5588 13 45.6029 13C44.7598 13 43.9168 12.8145 43.3435 12.4436L43.3098 12.7471C43.276 12.8482 43.276 12.882 43.1749 12.882H42.9388C42.8376 12.882 42.8208 12.8482 42.8208 12.7471L42.7028 9.98184C42.7028 9.88067 42.7196 9.84695 42.8208 9.84695H43.1243C43.2255 9.84695 43.2423 9.88067 43.2592 9.98184L43.2929 10.3022C43.4278 11.3307 44.3214 12.4267 45.6029 12.4267C46.6146 12.4267 47.2384 11.9883 47.2384 11.1958C47.2384 10.2516 46.3448 9.81323 45.2657 9.32425C44.0348 8.73411 42.8376 8.05966 42.8376 6.42412C42.8376 4.97406 44.0348 3.84436 45.9233 3.84436C46.6314 3.84436 47.3733 4.02983 47.8623 4.36706L47.9129 4.08041C47.9297 3.97925 47.9466 3.94552 48.0309 3.94552H48.267C48.3681 3.94552 48.385 3.97925 48.385 4.08041V6.62646C48.385 6.74449 48.3681 6.77821 48.267 6.77821H47.9803C47.8792 6.77821 47.8454 6.74449 47.8454 6.62646V6.42412C47.8117 5.21012 46.9349 4.41764 45.9401 4.41764C45.097 4.41764 44.6755 4.83917 44.6755 5.46304C44.6755 6.3061 45.4511 6.71077 46.5977 7.26719C47.9803 7.94163 49.1269 8.54864 49.1269 10.2685Z" fill="#C01823"/>
<path d="M56.7177 10.2685C56.7177 11.9377 55.1496 13 53.1937 13C52.3507 13 51.5076 12.8145 50.9343 12.4436L50.9006 12.7471C50.8669 12.8482 50.8669 12.882 50.7657 12.882H50.5297C50.4285 12.882 50.4116 12.8482 50.4116 12.7471L50.2936 9.98184C50.2936 9.88067 50.3105 9.84695 50.4116 9.84695H50.7151C50.8163 9.84695 50.8332 9.88067 50.85 9.98184L50.8837 10.3022C51.0186 11.3307 51.9123 12.4267 53.1937 12.4267C54.2054 12.4267 54.8293 11.9883 54.8293 11.1958C54.8293 10.2516 53.9356 9.81323 52.8565 9.32425C51.6256 8.73411 50.4285 8.05966 50.4285 6.42412C50.4285 4.97406 51.6256 3.84436 53.5141 3.84436C54.2223 3.84436 54.9642 4.02983 55.4531 4.36706L55.5037 4.08041C55.5206 3.97925 55.5374 3.94552 55.6217 3.94552H55.8578C55.959 3.94552 55.9758 3.97925 55.9758 4.08041V6.62646C55.9758 6.74449 55.959 6.77821 55.8578 6.77821H55.5712C55.47 6.77821 55.4363 6.74449 55.4363 6.62646V6.42412C55.4026 5.21012 54.5258 4.41764 53.531 4.41764C52.6879 4.41764 52.2664 4.83917 52.2664 5.46304C52.2664 6.3061 53.042 6.71077 54.1885 7.26719C55.5712 7.94163 56.7177 8.54864 56.7177 10.2685Z" fill="#C01823"/>
<path d="M62.2852 12.7808H57.6652C57.5641 12.7808 57.5304 12.7639 57.5304 12.6628V12.3761C57.5304 12.275 57.5641 12.2581 57.6652 12.2581L58.3734 12.2244C58.7949 12.2244 58.8118 12.1232 58.8118 10.8418V6.01946C58.8118 4.72114 58.7949 4.61997 58.3734 4.61997L57.6652 4.60311C57.5641 4.60311 57.5304 4.56939 57.5304 4.46822V4.18158C57.5304 4.08041 57.5641 4.06355 57.6652 4.06355H60.9869C61.0881 4.06355 61.1387 4.131 61.1387 4.26589V10.8418C61.1387 12.1232 61.1555 12.2244 61.5602 12.2244L62.2852 12.2581C62.3864 12.2581 62.4201 12.275 62.4201 12.3761V12.6628C62.4201 12.7639 62.3864 12.7808 62.2852 12.7808ZM61.2904 1.21401C61.2904 1.92218 60.7508 2.44488 59.9921 2.44488C59.2165 2.44488 58.6432 1.93904 58.6432 1.21401C58.6432 0.505836 59.1996 0 59.9584 0C60.734 0 61.2904 0.505836 61.2904 1.21401Z" fill="#C01823"/>
<path d="M72.1021 8.22828C72.1021 10.9935 70.4835 13 67.5496 13C64.6663 13 63.132 11.297 63.132 8.58236C63.132 5.81712 64.7506 3.84436 67.6845 3.84436C70.5678 3.84436 72.1021 5.49676 72.1021 8.22828ZM69.5392 8.27886C69.5392 5.88457 69.1346 4.45136 67.6339 4.45136C66.1333 4.45136 65.7117 5.96887 65.7117 8.54864C65.7117 10.9261 66.1164 12.393 67.6171 12.393C69.1177 12.393 69.5392 10.8249 69.5392 8.27886Z" fill="#C01823"/>
<path d="M83.3154 12.7808H78.864C78.7629 12.7808 78.7291 12.7639 78.7291 12.6628V12.3761C78.7291 12.275 78.7629 12.2581 78.864 12.2581L79.4036 12.2244C79.8251 12.2075 79.842 12.1232 79.842 10.8418V6.71077C79.842 5.36187 79.2687 4.88975 78.3076 4.88975C77.3802 4.88975 76.8238 5.42931 76.4191 6.20493V10.8418C76.4191 12.1232 76.436 12.2075 76.8407 12.2244L77.3971 12.2581C77.4983 12.2581 77.532 12.275 77.532 12.3761V12.6628C77.532 12.7639 77.4983 12.7808 77.3971 12.7808H72.9457C72.8446 12.7808 72.8108 12.7639 72.8108 12.6628V12.3761C72.8108 12.275 72.8446 12.2581 72.9457 12.2581L73.6539 12.2244C74.0754 12.2244 74.0923 12.1232 74.0923 10.8418V6.01946C74.0923 4.72114 74.0754 4.63684 73.6539 4.61997L72.9457 4.60311C72.8446 4.58625 72.8108 4.56939 72.8108 4.46822V4.18158C72.8108 4.08041 72.8446 4.06355 72.9457 4.06355H76.1156C76.2337 4.06355 76.2674 4.131 76.2674 4.26589V5.54734H76.318C76.8238 4.58625 77.7849 3.84436 79.3024 3.84436C80.6513 3.84436 82.1688 4.48508 82.1688 6.77821V10.8418C82.1688 12.1232 82.1857 12.2244 82.5903 12.2244L83.3154 12.2581C83.4165 12.2581 83.4503 12.275 83.4503 12.3761V12.6628C83.4503 12.7639 83.4165 12.7808 83.3154 12.7808Z" fill="#C01823"/>
<path d="M91.6486 11.0778C91.6486 11.9546 91.8004 12.2412 92.1376 12.2412C92.3905 12.2412 92.576 12.0389 92.694 11.786C92.7278 11.7017 92.7784 11.6848 92.8627 11.7185L93.065 11.8029C93.1493 11.8366 93.1662 11.8872 93.1156 11.9883C92.8795 12.5953 92.3062 13 91.3789 13C90.3166 13 89.5916 12.4436 89.4735 11.3813H89.423C88.816 12.4436 87.9392 13 86.7083 13C85.3088 13 84.2466 12.2412 84.2466 10.7575C84.2466 9.23995 85.1234 8.63294 87.1804 8.02594C89.3218 7.40208 89.3387 7.26719 89.3387 6.74449V6.33982C89.3387 5.0415 88.5799 4.55253 87.5682 4.55253C87.0624 4.55253 86.6071 4.68742 86.2193 4.88975C86.4554 5.27756 86.5397 5.68223 86.5397 6.00259C86.5397 6.47471 86.3205 6.87938 85.6292 6.87938C84.9885 6.87938 84.5838 6.6096 84.5838 6.00259C84.5838 4.9572 86.2362 3.84436 88.2427 3.84436C90.0131 3.84436 91.6486 4.60311 91.6486 6.64332V11.0778ZM89.3387 10.7743V7.90791C88.7822 8.07652 88.2258 8.27886 87.7706 8.49805C86.9612 8.88586 86.624 9.40856 86.624 10.3359C86.624 11.3139 87.0118 11.9377 87.7537 11.9377C88.4282 11.9377 88.9677 11.4656 89.3387 10.7743Z" fill="#C01823"/>
<path d="M98.1482 12.7808H93.5283C93.4271 12.7808 93.3934 12.7639 93.3934 12.6628V12.3761C93.3934 12.275 93.4271 12.2581 93.5283 12.2581L94.2364 12.2244C94.658 12.2244 94.6748 12.1232 94.6748 10.8418V2.24254C94.6748 0.961089 94.658 0.859922 94.2364 0.859922L93.5283 0.826199C93.4271 0.826199 93.3934 0.809338 93.3934 0.708171V0.42153C93.3934 0.320363 93.4271 0.303502 93.5283 0.303502H96.8499C96.9511 0.303502 97.0017 0.370946 97.0017 0.505836V10.8418C97.0017 12.1232 97.0185 12.2244 97.4232 12.2244L98.1482 12.2581C98.2494 12.2581 98.2831 12.275 98.2831 12.3761V12.6628C98.2831 12.7639 98.2494 12.7808 98.1482 12.7808Z" fill="#C01823"/>
</svg>
