<svg width="196" height="13" viewBox="0 0 196 13" fill="none" xmlns="http://www.w3.org/2000/svg">
<path d="M138.035 12.9957C137.937 12.9957 137.903 12.9619 137.839 12.8829L132.078 4.70775H132.045V8.59225C132.045 11.3825 132.485 11.8225 133.432 11.9052L133.906 11.939C134.004 11.9541 134.019 11.988 134.019 12.0857V12.6573C134.019 12.7701 134.004 12.7889 133.906 12.7889H129.679C129.581 12.7889 129.566 12.7738 129.566 12.6573V12.0857C129.566 11.988 129.581 11.9541 129.679 11.939L129.909 11.9052C130.563 11.8225 130.92 11.3675 130.92 8.59225V4.15495C130.92 2.86515 130.92 2.71846 130.495 2.68462L129.694 2.63574C129.596 2.62071 129.581 2.6019 129.581 2.50414V1.89869C129.581 1.7859 129.596 1.76709 129.694 1.76709H132.924C133.022 1.76709 133.071 1.80093 133.135 1.89869L138.129 9.1789H138.163V5.96372C138.163 3.1735 137.723 2.74854 136.76 2.65078L136.301 2.6019C136.204 2.58686 136.204 2.56806 136.204 2.4703V1.89869C136.204 1.7859 136.204 1.76709 136.301 1.76709H140.494C140.592 1.76709 140.607 1.78213 140.607 1.89869V2.4703C140.607 2.56806 140.592 2.58309 140.494 2.6019L140.284 2.65078C139.648 2.74854 139.287 3.18854 139.287 5.96372V12.8829C139.287 12.9656 139.238 12.9957 139.125 12.9957H138.031H138.035Z" fill="#67686B"/>
<path d="M145.296 12.9963C142.457 12.9963 140.957 11.3004 140.957 8.70566C140.957 6.11097 142.457 4.13672 145.198 4.13672C147.109 4.13672 148.82 5.14829 148.82 7.70914V7.87085C148.82 8.32585 148.688 8.45745 148.116 8.45745H143.401V8.60414C143.401 10.4806 144.315 11.7215 146.093 11.7215C146.992 11.7215 147.661 11.4094 148.15 10.9882C148.233 10.9243 148.263 10.9394 148.331 11.0033L148.707 11.3605C148.756 11.4094 148.79 11.4583 148.722 11.541C147.872 12.421 146.928 12.9926 145.296 12.9926V12.9963ZM145.067 5.03549C143.875 5.03549 143.42 5.91541 143.42 7.5813H145.883C146.439 7.5813 146.567 7.4497 146.567 7.0097C146.567 5.68982 146.029 5.03549 145.067 5.03549Z" fill="#67686B"/>
<path d="M168.956 5.19628C168.629 5.2602 168.433 5.37681 168.253 5.78292C168.121 6.07625 167.974 6.46733 167.779 7.13669L165.985 12.8826C165.951 12.9653 165.936 12.9954 165.823 12.9954H164.601C164.503 12.9954 164.47 12.9804 164.44 12.8826L162.612 7.38486H162.563L160.638 12.8826C160.604 12.9653 160.589 12.9954 160.476 12.9954H159.269C159.171 12.9954 159.137 12.9804 159.107 12.8826L157.02 6.63277C156.595 5.36173 156.434 5.279 155.975 5.19628L155.764 5.1474C155.666 5.13237 155.651 5.11356 155.651 5.0158V4.47804C155.651 4.36524 155.666 4.34644 155.764 4.34644H159.878C159.976 4.34644 159.991 4.36147 159.991 4.47804V5.0158C159.991 5.11356 159.976 5.1474 159.878 5.1474L159.536 5.18125C159.291 5.19628 159.179 5.26397 159.179 5.50841C159.179 5.71896 159.261 6.06494 159.423 6.63277L160.484 10.3218H160.499L161.608 7.15545C161.706 6.8471 161.886 6.29057 161.886 5.81677C161.886 5.4896 161.788 5.21132 161.461 5.18125L161.202 5.1474C161.104 5.1474 161.089 5.11356 161.089 5.0158V4.47804C161.089 4.36524 161.104 4.34644 161.202 4.34644H164.857C164.955 4.34644 164.955 4.36147 164.955 4.47804V5.0158C164.955 5.11356 164.955 5.1286 164.857 5.1474L164.515 5.18125C164.27 5.19628 164.139 5.29404 164.139 5.54225C164.139 5.75281 164.236 6.07997 164.417 6.63654L165.771 10.3255H165.786L166.636 7.09531C166.767 6.60642 166.865 6.0499 166.865 5.67385C166.865 5.41438 166.782 5.21886 166.474 5.18502L166.147 5.15117C166.049 5.15117 166.034 5.11733 166.034 5.01953V4.48181C166.034 4.36901 166.049 4.3502 166.147 4.3502H169.148C169.245 4.3502 169.245 4.36524 169.245 4.48181V5.01953C169.245 5.11733 169.23 5.13237 169.148 5.15117L168.967 5.20005L168.956 5.19628Z" fill="#67686B"/>
<path d="M173.727 12.9963C170.839 12.9963 169.451 11.3492 169.451 8.7207C169.451 6.09216 170.936 4.13672 173.858 4.13672C176.78 4.13672 178.134 5.73493 178.134 8.3785C178.134 11.0221 176.633 12.9963 173.727 12.9963ZM173.79 5.03549C172.339 5.03549 171.948 6.5547 171.948 8.69063C171.948 10.6498 172.324 12.1013 173.776 12.1013C175.227 12.1013 175.652 10.5671 175.652 8.43115C175.652 6.45694 175.261 5.03549 173.79 5.03549Z" fill="#67686B"/>
<path d="M179.092 12.7849C178.994 12.7849 178.979 12.7698 178.979 12.6533V12.1155C178.979 12.0177 178.994 12.0027 179.092 11.9839L179.776 11.95C180.201 11.9162 180.216 11.7695 180.216 10.4797V7.00506C180.216 5.30913 180.036 5.21138 179.596 5.17749L179.088 5.14365C178.99 5.14365 178.976 5.1098 178.976 5.01204V4.47428C178.976 4.36148 178.99 4.34268 179.088 4.34268H182.074C182.172 4.34268 182.221 4.39156 182.221 4.52321V6.07249H182.269C182.807 4.92932 183.589 4.13208 184.654 4.13208C185.616 4.13208 186.173 4.85032 186.173 5.81301C186.173 6.5651 185.748 6.9073 185.03 6.9073C184.312 6.9073 183.969 6.46734 183.969 5.99354C183.969 5.86189 184.003 5.68518 184.033 5.55353H183.936C183.33 5.55353 182.909 6.12514 182.465 6.92611V10.4835C182.465 11.7733 182.48 11.935 182.905 11.9538L183.965 11.9877C184.063 11.9877 184.079 12.0215 184.079 12.1193V12.657C184.079 12.7698 184.063 12.7886 183.965 12.7886H179.084L179.092 12.7849Z" fill="#67686B"/>
<path d="M192.751 12.7855C192.637 12.7855 192.604 12.7517 192.54 12.6539L190.254 8.93481C189.799 9.40866 189.633 9.70198 189.633 10.2547V10.5481C189.633 11.7702 189.648 11.9206 190.073 11.9507L190.596 11.9845C190.693 11.9996 190.709 12.0184 190.709 12.1161V12.6539C190.709 12.7667 190.693 12.7855 190.596 12.7855H186.256C186.158 12.7855 186.143 12.7705 186.143 12.6539V12.1161C186.143 12.0184 186.158 12.0034 186.256 11.9845L186.94 11.9507C187.365 11.9169 187.381 11.7702 187.381 10.4804V3.00461C187.381 1.69976 187.365 1.56816 186.94 1.53432L186.256 1.50043C186.158 1.48539 186.143 1.46663 186.143 1.36883V0.831109C186.143 0.71827 186.158 0.699463 186.256 0.699463H189.486C189.584 0.699463 189.633 0.748343 189.633 0.879989V8.46855H189.648C189.878 8.02855 190.333 7.5209 191.28 6.54318C191.72 6.08818 191.935 5.85878 191.935 5.5655C191.935 5.38497 191.821 5.2233 191.494 5.18946L191.088 5.14053C190.99 5.14053 190.976 5.10669 190.976 5.00893V4.47121C190.976 4.35837 190.99 4.33957 191.088 4.33957H194.988C195.086 4.33957 195.086 4.3546 195.086 4.47121V5.00893C195.086 5.10669 195.086 5.14053 194.988 5.14053L194.71 5.18946C194.104 5.27218 193.664 5.53161 192.604 6.57702L191.837 7.3103L193.811 10.4916C194.529 11.6498 194.71 11.9131 195.052 11.9432L195.281 11.977C195.379 11.992 195.394 12.0109 195.394 12.1087V12.6464C195.394 12.7592 195.394 12.778 195.296 12.778H192.751V12.7855Z" fill="#67686B"/>
<path d="M155.625 11.6271L155.283 11.2699C155.185 11.1872 155.151 11.1872 155.087 11.2549C154.877 11.4993 154.565 11.7099 154.159 11.7099C153.279 11.7099 153 11.0255 153 9.91613V5.44499H154.843C154.941 5.44499 154.975 5.42995 154.975 5.31339V4.4635C154.975 4.36574 154.941 4.3507 154.843 4.3507H153V1.78985C153 1.69209 152.985 1.6582 152.918 1.6582H152.658C152.545 1.6582 152.511 1.69205 152.414 1.77104C151.974 2.09821 151.402 2.42537 150.864 2.65096C150.782 2.68485 150.752 2.73368 150.752 2.83149V4.3507L149.627 4.4635C149.529 4.47853 149.514 4.49734 149.514 4.59514V5.31339C149.514 5.41491 149.529 5.43745 149.612 5.44122H151.955L150.752 6.07297V10.3222C150.752 12.2138 151.876 12.9997 153.136 12.9997C154.181 12.9997 155.061 12.5935 155.648 11.8076C155.712 11.7249 155.697 11.6948 155.633 11.6271H155.625Z" fill="#67686B"/>
<path d="M1.91709 12.6581C1.01142 12.6581 0.439423 11.9691 0.439423 10.9768C0.439423 10.6258 0.47409 10.3528 0.521757 10.0018L1.28009 4.62418H0.0884243C0.0060911 4.62418 -0.0112433 4.58951 0.00609004 4.48984L0.0710939 4.08685C0.0884272 3.96985 0.105756 3.95251 0.188089 3.95251L1.39709 3.87018L1.60076 2.34053C1.61809 2.2582 1.63542 2.24086 1.73509 2.17153C2.10342 1.93753 2.52375 1.6342 2.84442 1.33087C2.92675 1.24854 2.94409 1.21387 3.04809 1.21387H3.06542C3.14775 1.21387 3.16508 1.2312 3.14775 1.33087L2.77942 3.87018H4.59509C4.72942 3.87018 4.72942 3.88751 4.71208 4.00451L4.66008 4.48984C4.64275 4.60684 4.62542 4.62418 4.52575 4.62418H2.65809L1.95176 9.53381C1.89976 9.8718 1.85209 10.3051 1.85209 10.6605C1.85209 11.1328 2.05575 11.4838 2.50642 11.4838C3.14342 11.4838 3.61575 10.7775 3.98409 10.1231C4.03609 10.0408 4.06642 10.0235 4.15309 10.0711L4.45642 10.2575C4.53875 10.3095 4.53875 10.3398 4.49108 10.4438C3.98842 11.4188 3.16508 12.6624 1.92142 12.6624L1.91709 12.6581Z" fill="#C01823"/>
<path d="M10.9267 12.5232C10.8097 12.5232 10.7924 12.4886 10.8097 12.3716L11.5984 6.79028C11.6331 6.53895 11.6807 6.23562 11.6807 5.91496C11.6807 5.26063 11.4121 4.70596 10.6407 4.70596C9.61374 4.70596 8.77307 5.68095 8.0364 6.56928L7.24774 12.3022C7.23041 12.4192 7.21307 12.4366 7.13074 12.4366H5.96941C5.85241 12.4366 5.83508 12.4019 5.85241 12.2849L7.28241 2.20132C7.48608 0.771328 7.43408 0.706326 7.06574 0.688993L6.29441 0.654329C6.21208 0.654329 6.19474 0.619661 6.21208 0.519995L6.26408 0.134331C6.28141 0.0173321 6.29874 0 6.36374 0H8.83374C8.95074 0 8.96807 0.0346657 8.95074 0.151665L8.1924 5.56396H8.22707C9.08507 4.4893 9.9604 3.64864 11.1867 3.64864C12.3481 3.64864 13.1021 4.45463 13.1021 5.52929C13.1021 5.84996 13.0847 6.20095 13.0327 6.55628L12.5127 10.2353C12.3091 11.6652 12.3611 11.7822 12.7294 11.7822H13.5181C13.5874 11.7822 13.6004 11.8169 13.5874 11.9166L13.5354 12.3022C13.5181 12.4192 13.5007 12.4366 13.4184 12.4366L10.9311 12.5189L10.9267 12.5232Z" fill="#C01823"/>
<path d="M19.0283 3.64941C20.1723 3.64941 21.364 4.16941 21.364 5.51707C21.364 7.87005 18.608 8.42471 16.6407 8.42471H16.372C16.3373 8.72804 16.32 9.06171 16.32 9.24804C16.32 10.4917 16.7403 11.5837 18.0013 11.5837C18.8593 11.5837 19.6653 11.1114 20.4063 10.0714C20.4583 9.98903 20.506 9.98903 20.5753 10.0367L20.8787 10.2707C20.961 10.3357 20.961 10.353 20.896 10.457C19.9903 11.7354 18.9633 12.6583 17.3817 12.6583C15.5487 12.6583 14.7773 11.3974 14.7773 9.5817C14.7773 6.87339 16.0903 3.64941 19.0283 3.64941ZM18.8247 4.40774C17.3947 4.40774 16.7577 5.9894 16.4543 7.78772H16.554C18.0187 7.78772 19.882 7.43672 19.882 5.55173C19.882 4.74574 19.3967 4.40774 18.8247 4.40774Z" fill="#C01823"/>
<path d="M28.3442 12.5415H23.0992C22.9999 12.5415 22.9668 12.525 22.9668 12.4257V12.1114C22.9668 12.0121 22.9999 11.9955 23.0992 11.9955L23.8437 11.9624C24.2408 11.9459 24.2574 11.8466 24.2574 10.5891V3.32546C24.2574 2.06797 24.2408 1.9687 23.8437 1.95215L23.0992 1.91906C22.9999 1.91906 22.9668 1.90252 22.9668 1.80324V1.48887C22.9668 1.38959 22.9999 1.37305 23.0992 1.37305H28.4104C30.247 1.37305 32.3484 2.00179 32.3484 4.54988C32.3484 7.04828 30.4787 7.89215 28.1126 7.89215H26.8055V10.5891C26.8055 11.8466 26.822 11.9624 27.2191 11.9624L28.3442 11.9955C28.4435 11.9955 28.4766 12.0121 28.4766 12.1114V12.4257C28.4766 12.525 28.4435 12.5415 28.3442 12.5415ZM27.6824 7.24684C29.0557 7.24684 29.6845 6.56846 29.6845 4.61605C29.6845 2.49817 28.973 2.01834 27.7486 2.01834H26.8055V7.24684H27.6824Z" fill="#C01823"/>
<path d="M38.078 12.5418H33.1639C33.0646 12.5418 33.0315 12.5252 33.0315 12.426V12.1447C33.0315 12.0454 33.0646 12.0288 33.1639 12.0288L33.8588 11.9958C34.2724 11.9958 34.289 11.8965 34.289 10.639V6.18816C34.289 4.6163 34.1401 4.55013 33.7264 4.53358L33.1639 4.51703C33.0646 4.50047 33.0315 4.48392 33.0315 4.38464V4.10338C33.0315 4.0041 33.0646 3.98756 33.1639 3.98756H36.2083C36.3241 3.98756 36.3572 4.05374 36.3572 4.18611V5.65868H36.4069C36.9363 4.48392 37.6974 3.77246 38.7068 3.77246C39.6664 3.77246 40.3117 4.55013 40.3117 5.49323C40.3117 6.20472 39.865 6.5191 39.1535 6.5191C38.4255 6.5191 38.1442 6.08889 38.1442 5.60906C38.1442 5.29468 38.26 4.96375 38.4586 4.68247C38.3924 4.66592 38.3097 4.64941 38.2435 4.64941C37.5816 4.64941 37.0522 5.22851 36.5723 6.23778V10.639C36.5723 11.8965 36.5889 11.9958 36.986 11.9958L38.078 12.0288C38.1773 12.0288 38.2104 12.0454 38.2104 12.1447V12.426C38.2104 12.5252 38.1773 12.5418 38.078 12.5418Z" fill="#C01823"/>
<path d="M49.302 8.07441C49.302 10.7879 47.7136 12.7569 44.8346 12.7569C42.0052 12.7569 40.4995 11.0857 40.4995 8.42185C40.4995 5.70834 42.0879 3.77246 44.967 3.77246C47.7963 3.77246 49.302 5.39396 49.302 8.07441ZM46.787 8.12402C46.787 5.77451 46.3899 4.36809 44.9173 4.36809C43.4447 4.36809 43.031 5.85723 43.031 8.38879C43.031 10.7217 43.4281 12.1612 44.9007 12.1612C46.3733 12.1612 46.787 10.6225 46.787 8.12402Z" fill="#C01823"/>
<path d="M55.0279 12.5418H50.0972C49.9979 12.5418 49.9648 12.5253 49.9648 12.426V12.1447C49.9648 12.0454 49.9979 12.0289 50.0972 12.0289L50.8087 11.9958C51.2223 11.9958 51.2389 11.8965 51.2389 10.6391V4.6825H50.0972C49.9979 4.6825 49.9648 4.66595 49.9648 4.56667V4.18614C49.9648 4.08686 49.9979 4.07032 50.0972 4.05377L51.2389 3.98759V3.3423C51.2389 1.53879 52.6287 0.297852 54.7135 0.297852C55.9214 0.297852 57.0796 0.926597 57.0796 1.96899C57.0796 2.59773 56.6494 2.89556 55.9876 2.89556C55.2761 2.89556 54.9948 2.515 54.9948 2.03517C54.9948 1.65461 55.1272 1.3237 55.3257 0.976231C55.1768 0.926597 54.9617 0.876959 54.7962 0.876959C53.8531 0.876959 53.5056 1.53879 53.5056 2.71355V3.98759H55.3753C55.4746 3.98759 55.5077 4.00413 55.5077 4.10341V4.56667C55.5077 4.66595 55.4746 4.6825 55.3753 4.6825H53.5056V10.6391C53.5056 11.8965 53.5222 11.9958 53.9359 11.9958L55.0279 12.0289C55.1272 12.0289 55.1437 12.0454 55.1437 12.1447V12.426C55.1437 12.5253 55.1272 12.5418 55.0279 12.5418Z" fill="#C01823"/>
<path d="M63.6619 10.1592C63.364 11.549 62.2058 12.7569 60.1376 12.7569C57.4406 12.7569 55.7363 11.1023 55.7363 8.4053C55.7363 5.82417 57.2751 3.77246 60.0217 3.77246C61.9576 3.77246 63.7115 4.86447 63.7115 7.31326V7.42909C63.7115 7.84275 63.5791 7.97513 63.0662 7.97513H58.2513V8.27296C58.2513 10.3412 58.7808 11.88 60.7001 11.88C62.0238 11.88 62.818 11.1189 63.1324 10.0599C63.1655 9.9606 63.1986 9.92754 63.2978 9.94409L63.5791 9.99371C63.6784 10.0103 63.695 10.0599 63.6619 10.1592ZM61.4282 6.75071C61.4282 5.11268 60.9318 4.35158 59.8894 4.35158C58.665 4.35158 58.2513 5.47668 58.2513 7.37947H60.7001C61.2792 7.37947 61.4282 7.24709 61.4282 6.75071Z" fill="#C01823"/>
<path d="M71.1749 10.0764C71.1749 11.7145 69.6361 12.7569 67.7169 12.7569C66.8897 12.7569 66.0624 12.5749 65.4998 12.2109L65.4668 12.5087C65.4336 12.608 65.4336 12.6411 65.3344 12.6411H65.1027C65.0034 12.6411 64.9869 12.608 64.9869 12.5087L64.8711 9.79516C64.8711 9.69588 64.8876 9.66282 64.9869 9.66282H65.2847C65.384 9.66282 65.4005 9.69588 65.4171 9.79516L65.4502 10.1095C65.5826 11.1189 66.4594 12.1943 67.7169 12.1943C68.7097 12.1943 69.322 11.7641 69.322 10.9865C69.322 10.0599 68.4449 9.62971 67.3863 9.14989C66.1782 8.57078 65.0034 7.90892 65.0034 6.30399C65.0034 4.88102 66.1782 3.77246 68.0315 3.77246C68.7262 3.77246 69.4542 3.95446 69.9343 4.28538L69.9837 4.0041C70.0001 3.90483 70.017 3.87173 70.0998 3.87173H70.3312C70.4304 3.87173 70.4469 3.90483 70.4469 4.0041V6.50254C70.4469 6.61837 70.4304 6.65144 70.3312 6.65144H70.05C69.9507 6.65144 69.9178 6.61837 69.9178 6.50254V6.30399C69.8844 5.11268 69.0243 4.33503 68.048 4.33503C67.2208 4.33503 66.8069 4.74868 66.8069 5.36085C66.8069 6.18816 67.5683 6.58527 68.6932 7.13126C70.05 7.79313 71.1749 8.38879 71.1749 10.0764Z" fill="#C01823"/>
<path d="M78.6235 10.0764C78.6235 11.7145 77.0847 12.7569 75.1655 12.7569C74.3383 12.7569 73.5111 12.5749 72.9486 12.2109L72.9152 12.5087C72.8823 12.608 72.8823 12.6411 72.7831 12.6411H72.5512C72.452 12.6411 72.4355 12.608 72.4355 12.5087L72.3198 9.79516C72.3198 9.69588 72.3363 9.66282 72.4355 9.66282H72.7332C72.8325 9.66282 72.8489 9.69588 72.8658 9.79516L72.8988 10.1095C73.0309 11.1189 73.908 12.1943 75.1655 12.1943C76.1583 12.1943 76.7706 11.7641 76.7706 10.9865C76.7706 10.0599 75.8935 9.62971 74.8345 9.14989C73.6268 8.57078 72.452 7.90892 72.452 6.30399C72.452 4.88102 73.6268 3.77246 75.4801 3.77246C76.1748 3.77246 76.9028 3.95446 77.3829 4.28538L77.4323 4.0041C77.4487 3.90483 77.4656 3.87173 77.548 3.87173H77.7798C77.879 3.87173 77.8955 3.90483 77.8955 4.0041V6.50254C77.8955 6.61837 77.879 6.65144 77.7798 6.65144H77.4986C77.3993 6.65144 77.366 6.61837 77.366 6.50254V6.30399C77.3331 5.11268 76.4729 4.33503 75.4966 4.33503C74.6694 4.33503 74.2555 4.74868 74.2555 5.36085C74.2555 6.18816 75.0165 6.58527 76.1418 7.13126C77.4986 7.79313 78.6235 8.38879 78.6235 10.0764Z" fill="#C01823"/>
<path d="M84.0871 12.5418H79.5535C79.4543 12.5418 79.4214 12.5252 79.4214 12.426V12.1447C79.4214 12.0454 79.4543 12.0289 79.5535 12.0289L80.2486 11.9958C80.662 11.9958 80.6785 11.8965 80.6785 10.639V5.9069C80.6785 4.63286 80.662 4.53359 80.2486 4.53359L79.5535 4.51703C79.4543 4.51703 79.4214 4.48393 79.4214 4.38465V4.10338C79.4214 4.00411 79.4543 3.98756 79.5535 3.98756H82.8131C82.9123 3.98756 82.9621 4.05375 82.9621 4.18612V10.639C82.9621 11.8965 82.9786 11.9958 83.3755 11.9958L84.0871 12.0289C84.1863 12.0289 84.2197 12.0454 84.2197 12.1447V12.426C84.2197 12.5252 84.1863 12.5418 84.0871 12.5418ZM83.1108 1.1913C83.1108 1.88623 82.5817 2.39915 81.8368 2.39915C81.0758 2.39915 80.5134 1.90278 80.5134 1.1913C80.5134 0.496375 81.0594 0 81.8038 0C82.5648 0 83.1108 0.496375 83.1108 1.1913Z" fill="#C01823"/>
<path d="M93.721 8.07441C93.721 10.7879 92.1328 12.7569 89.2538 12.7569C86.4241 12.7569 84.9187 11.0857 84.9187 8.42185C84.9187 5.70834 86.5069 3.77246 89.3859 3.77246C92.2152 3.77246 93.721 5.39396 93.721 8.07441ZM91.2059 8.12402C91.2059 5.77451 90.809 4.36809 89.3365 4.36809C87.8636 4.36809 87.4502 5.85723 87.4502 8.38879C87.4502 10.7217 87.8472 12.1612 89.3196 12.1612C90.7925 12.1612 91.2059 10.6225 91.2059 8.12402Z" fill="#C01823"/>
<path d="M104.724 12.5418H100.356C100.257 12.5418 100.224 12.5252 100.224 12.426V12.1447C100.224 12.0454 100.257 12.0288 100.356 12.0288L100.886 11.9958C101.299 11.9792 101.316 11.8965 101.316 10.639V6.58527C101.316 5.26157 100.753 4.7983 99.8101 4.7983C98.9001 4.7983 98.3541 5.32779 97.9568 6.08889V10.639C97.9568 11.8965 97.9732 11.9792 98.3706 11.9958L98.9166 12.0288C99.0158 12.0288 99.0488 12.0454 99.0488 12.1447V12.426C99.0488 12.5252 99.0158 12.5418 98.9166 12.5418H94.5482C94.4489 12.5418 94.416 12.5252 94.416 12.426V12.1447C94.416 12.0454 94.4489 12.0288 94.5482 12.0288L95.2432 11.9958C95.6571 11.9958 95.6735 11.8965 95.6735 10.639V5.90689C95.6735 4.63286 95.6571 4.55013 95.2432 4.53358L94.5482 4.51703C94.4489 4.50047 94.416 4.48392 94.416 4.38464V4.10338C94.416 4.0041 94.4489 3.98756 94.5482 3.98756H97.6591C97.7748 3.98756 97.8081 4.05374 97.8081 4.18611V5.44362H97.8575C98.3541 4.50047 99.2971 3.77246 100.786 3.77246C102.11 3.77246 103.599 4.4012 103.599 6.65144V10.639C103.599 11.8965 103.616 11.9958 104.013 11.9958L104.724 12.0288C104.823 12.0288 104.857 12.0454 104.857 12.1447V12.426C104.857 12.5252 104.823 12.5418 104.724 12.5418Z" fill="#C01823"/>
<path d="M112.901 10.8706C112.901 11.731 113.051 12.0123 113.382 12.0123C113.629 12.0123 113.811 11.8138 113.928 11.5656C113.961 11.4829 114.01 11.4663 114.093 11.4994L114.292 11.5821C114.374 11.6152 114.391 11.6648 114.341 11.7641C114.11 12.3598 113.547 12.7569 112.637 12.7569C111.595 12.7569 110.883 12.2109 110.767 11.1685H110.717C110.122 12.2109 109.261 12.7569 108.054 12.7569C106.68 12.7569 105.638 12.0123 105.638 10.5563C105.638 9.06716 106.498 8.47151 108.517 7.87585C110.618 7.26365 110.635 7.13126 110.635 6.61837V6.22127C110.635 4.94724 109.89 4.46737 108.897 4.46737C108.401 4.46737 107.954 4.59975 107.574 4.7983C107.805 5.17885 107.888 5.57595 107.888 5.89034C107.888 6.35361 107.673 6.75071 106.995 6.75071C106.366 6.75071 105.969 6.48599 105.969 5.89034C105.969 4.86447 107.59 3.77246 109.559 3.77246C111.296 3.77246 112.901 4.51703 112.901 6.5191V10.8706ZM110.635 10.5728V7.76002C110.089 7.92547 109.543 8.12402 109.096 8.33913C108.302 8.71968 107.971 9.23261 107.971 10.1426C107.971 11.1023 108.351 11.7145 109.079 11.7145C109.741 11.7145 110.271 11.2512 110.635 10.5728Z" fill="#C01823"/>
<path d="M119.28 12.5418H114.746C114.647 12.5418 114.614 12.5253 114.614 12.426V12.1447C114.614 12.0454 114.647 12.0289 114.746 12.0289L115.441 11.9958C115.855 11.9958 115.871 11.8965 115.871 10.6391V2.20063C115.871 0.943142 115.855 0.843866 115.441 0.843866L114.746 0.810773C114.647 0.810773 114.614 0.794228 114.614 0.694952V0.413672C114.614 0.314397 114.647 0.297852 114.746 0.297852H118.006C118.105 0.297852 118.154 0.364034 118.154 0.4964V10.6391C118.154 11.8965 118.171 11.9958 118.568 11.9958L119.28 12.0289C119.379 12.0289 119.412 12.0454 119.412 12.1447V12.426C119.412 12.5253 119.379 12.5418 119.28 12.5418Z" fill="#C01823"/>
<path d="M122.733 12.6126C121.964 12.6126 121.32 12.4203 120.854 12.1318L120.821 12.4055C120.787 12.4868 120.773 12.5016 120.691 12.5016H120.259C120.148 12.5016 120.129 12.5016 120.129 12.4055L120.033 9.86861C120.033 9.77246 120.048 9.75766 120.162 9.75766H120.71C120.806 9.75766 120.821 9.77246 120.839 9.86861L120.902 10.2384C121.094 11.1851 121.834 11.7953 122.748 11.7953C123.661 11.7953 124.242 11.4255 124.242 10.7044C124.242 9.98324 123.425 9.58016 122.444 9.1142C121.29 8.56688 120.148 7.89383 120.148 6.37022C120.148 5.00563 121.224 3.8999 123.051 3.8999C123.709 3.8999 124.368 4.07741 124.719 4.29929L124.782 4.10699C124.797 4.02564 124.815 3.99606 124.911 3.99606H125.329C125.44 3.99606 125.459 4.01084 125.459 4.10699V6.46637C125.459 6.54773 125.444 6.56253 125.329 6.56253H124.8C124.704 6.56253 124.671 6.54773 124.671 6.46637L124.656 6.16313C124.593 5.2497 123.887 4.71718 123.099 4.71718C122.393 4.71718 121.945 5.02043 121.945 5.61582C121.945 6.24079 122.57 6.57731 123.661 7.12463C125.122 7.84576 126.132 8.39307 126.132 9.97955C126.132 11.566 124.815 12.6126 122.729 12.6126H122.733Z" fill="#C01823"/>
</svg>
