<svg width="27" height="27" viewBox="0 0 27 27" fill="none" xmlns="http://www.w3.org/2000/svg">
<path fill-rule="evenodd" clip-rule="evenodd" d="M5.33333 2.66602H21.3333C22.7478 2.66602 24.1044 3.22792 25.1046 4.22811C26.1048 5.22831 26.6667 6.58486 26.6667 7.99935V21.3327C26.6667 22.7472 26.1048 24.1037 25.1046 25.1039C24.1044 26.1041 22.7478 26.666 21.3333 26.666H5.33333C3.91884 26.666 2.56229 26.1041 1.5621 25.1039C0.561903 24.1037 0 22.7472 0 21.3327V7.99935C0 6.58486 0.561903 5.22831 1.5621 4.22811C2.56229 3.22792 3.91884 2.66602 5.33333 2.66602ZM5.33333 5.33268C4.62609 5.33268 3.94781 5.61363 3.44771 6.11373C2.94762 6.61383 2.66667 7.29211 2.66667 7.99935V21.3327C2.66667 22.0399 2.94762 22.7182 3.44771 23.2183C3.94781 23.7184 4.62609 23.9993 5.33333 23.9993H21.3333C22.0406 23.9993 22.7189 23.7184 23.2189 23.2183C23.719 22.7182 24 22.0399 24 21.3327V7.99935C24 7.29211 23.719 6.61383 23.2189 6.11373C22.7189 5.61363 22.0406 5.33268 21.3333 5.33268H5.33333Z" fill="#C01522"/>
<path fill-rule="evenodd" clip-rule="evenodd" d="M1.33325 10.6667C1.33325 10.313 1.47373 9.97391 1.72378 9.72386C1.97382 9.47381 2.31296 9.33333 2.66659 9.33333H23.9999C24.3535 9.33333 24.6927 9.47381 24.9427 9.72386C25.1928 9.97391 25.3333 10.313 25.3333 10.6667C25.3333 11.0203 25.1928 11.3594 24.9427 11.6095C24.6927 11.8595 24.3535 12 23.9999 12H2.66659C2.31296 12 1.97382 11.8595 1.72378 11.6095C1.47373 11.3594 1.33325 11.0203 1.33325 10.6667ZM7.99992 0C8.35354 0 8.69268 0.140476 8.94273 0.390524C9.19278 0.640573 9.33325 0.979711 9.33325 1.33333V6.66667C9.33325 7.02029 9.19278 7.35943 8.94273 7.60948C8.69268 7.85952 8.35354 8 7.99992 8C7.6463 8 7.30716 7.85952 7.05711 7.60948C6.80706 7.35943 6.66659 7.02029 6.66659 6.66667V1.33333C6.66659 0.979711 6.80706 0.640573 7.05711 0.390524C7.30716 0.140476 7.6463 0 7.99992 0ZM18.6666 0C19.0202 0 19.3593 0.140476 19.6094 0.390524C19.8594 0.640573 19.9999 0.979711 19.9999 1.33333V6.66667C19.9999 7.02029 19.8594 7.35943 19.6094 7.60948C19.3593 7.85952 19.0202 8 18.6666 8C18.313 8 17.9738 7.85952 17.7238 7.60948C17.4737 7.35943 17.3333 7.02029 17.3333 6.66667V1.33333C17.3333 0.979711 17.4737 0.640573 17.7238 0.390524C17.9738 0.140476 18.313 0 18.6666 0Z" fill="#C01522"/>
<path d="M8.00016 14.6673C8.00016 15.0209 7.85969 15.3601 7.60964 15.6101C7.35959 15.8602 7.02045 16.0007 6.66683 16.0007C6.31321 16.0007 5.97407 15.8602 5.72402 15.6101C5.47397 15.3601 5.3335 15.0209 5.3335 14.6673C5.3335 14.3137 5.47397 13.9746 5.72402 13.7245C5.97407 13.4745 6.31321 13.334 6.66683 13.334C7.02045 13.334 7.35959 13.4745 7.60964 13.7245C7.85969 13.9746 8.00016 14.3137 8.00016 14.6673ZM8.00016 20.0007C8.00016 20.3543 7.85969 20.6934 7.60964 20.9435C7.35959 21.1935 7.02045 21.334 6.66683 21.334C6.31321 21.334 5.97407 21.1935 5.72402 20.9435C5.47397 20.6934 5.3335 20.3543 5.3335 20.0007C5.3335 19.647 5.47397 19.3079 5.72402 19.0578C5.97407 18.8078 6.31321 18.6673 6.66683 18.6673C7.02045 18.6673 7.35959 18.8078 7.60964 19.0578C7.85969 19.3079 8.00016 19.647 8.00016 20.0007ZM14.6668 14.6673C14.6668 15.0209 14.5264 15.3601 14.2763 15.6101C14.0263 15.8602 13.6871 16.0007 13.3335 16.0007C12.9799 16.0007 12.6407 15.8602 12.3907 15.6101C12.1406 15.3601 12.0002 15.0209 12.0002 14.6673C12.0002 14.3137 12.1406 13.9746 12.3907 13.7245C12.6407 13.4745 12.9799 13.334 13.3335 13.334C13.6871 13.334 14.0263 13.4745 14.2763 13.7245C14.5264 13.9746 14.6668 14.3137 14.6668 14.6673ZM14.6668 20.0007C14.6668 20.3543 14.5264 20.6934 14.2763 20.9435C14.0263 21.1935 13.6871 21.334 13.3335 21.334C12.9799 21.334 12.6407 21.1935 12.3907 20.9435C12.1406 20.6934 12.0002 20.3543 12.0002 20.0007C12.0002 19.647 12.1406 19.3079 12.3907 19.0578C12.6407 18.8078 12.9799 18.6673 13.3335 18.6673C13.6871 18.6673 14.0263 18.8078 14.2763 19.0578C14.5264 19.3079 14.6668 19.647 14.6668 20.0007ZM21.3335 14.6673C21.3335 15.0209 21.193 15.3601 20.943 15.6101C20.6929 15.8602 20.3538 16.0007 20.0002 16.0007C19.6465 16.0007 19.3074 15.8602 19.0574 15.6101C18.8073 15.3601 18.6668 15.0209 18.6668 14.6673C18.6668 14.3137 18.8073 13.9746 19.0574 13.7245C19.3074 13.4745 19.6465 13.334 20.0002 13.334C20.3538 13.334 20.6929 13.4745 20.943 13.7245C21.193 13.9746 21.3335 14.3137 21.3335 14.6673ZM21.3335 20.0007C21.3335 20.3543 21.193 20.6934 20.943 20.9435C20.6929 21.1935 20.3538 21.334 20.0002 21.334C19.6465 21.334 19.3074 21.1935 19.0574 20.9435C18.8073 20.6934 18.6668 20.3543 18.6668 20.0007C18.6668 19.647 18.8073 19.3079 19.0574 19.0578C19.3074 18.8078 19.6465 18.6673 20.0002 18.6673C20.3538 18.6673 20.6929 18.8078 20.943 19.0578C21.193 19.3079 21.3335 19.647 21.3335 20.0007Z" fill="#C01522"/>
</svg>
