<svg width="223" height="60" viewBox="0 0 223 60" fill="none" xmlns="http://www.w3.org/2000/svg">
<path d="M19.5428 59.9906C19.3172 59.9906 19.2391 59.9125 19.0916 59.7303L5.79689 40.8644H5.71879V49.8287C5.71879 56.2678 6.73412 57.2831 8.92097 57.474L10.0144 57.5521C10.24 57.5868 10.2747 57.665 10.2747 57.8906V59.2096C10.2747 59.47 10.24 59.5134 10.0144 59.5134H0.260329C0.0347014 59.5134 0 59.4786 0 59.2096V57.8906C0 57.665 0.0347014 57.5868 0.260329 57.5521L0.789687 57.474C2.29966 57.2831 3.12407 56.2331 3.12407 49.8287V39.5887C3.12407 36.6122 3.12406 36.2737 2.14345 36.1956L0.295048 36.0828C0.0694207 36.0481 0.0347061 36.0047 0.0347061 35.7791V34.3819C0.0347061 34.1216 0.0694207 34.0782 0.295048 34.0782H7.74943C7.97506 34.0782 8.08787 34.1563 8.2354 34.3819L19.7598 51.1825H19.8379V43.7628C19.8379 37.3238 18.8225 36.3431 16.601 36.1175L15.5423 36.0047C15.3166 35.97 15.3166 35.9266 15.3166 35.701V34.3819C15.3166 34.1216 15.3166 34.0782 15.5423 34.0782H25.2182C25.4438 34.0782 25.4786 34.1129 25.4786 34.3819V35.701C25.4786 35.9266 25.4438 35.9613 25.2182 36.0047L24.7323 36.1175C23.2657 36.3431 22.4326 37.3585 22.4326 43.7628V59.7303C22.4326 59.9212 22.3198 59.9906 22.0594 59.9906H19.5341H19.5428Z" fill="#67686B"/>
<path d="M36.2991 59.9912C29.7472 59.9912 26.2847 56.0774 26.2847 50.0896C26.2847 44.1018 29.7472 39.5458 36.0734 39.5458C40.4819 39.5458 44.4303 41.8802 44.4303 47.7899V48.1631C44.4303 49.2131 44.1266 49.5168 42.8075 49.5168H31.9254V49.8553C31.9254 54.1856 34.0341 57.0493 38.1388 57.0493C40.2128 57.0493 41.7575 56.3291 42.8857 55.3571C43.0766 55.2096 43.146 55.2443 43.3022 55.3918L44.17 56.2162C44.2828 56.3291 44.3609 56.4419 44.2047 56.6328C42.2435 58.6634 40.0653 59.9825 36.2991 59.9825V59.9912ZM35.7697 41.6199C33.0188 41.6199 31.9688 43.6505 31.9688 47.4949H37.6528C38.9372 47.4949 39.2322 47.1912 39.2322 46.1758C39.2322 43.1299 37.9913 41.6199 35.7697 41.6199Z" fill="#67686B"/>
<path d="M90.899 41.9918C90.144 42.1393 89.6928 42.4084 89.2762 43.3456C88.9725 44.0225 88.634 44.925 88.1828 46.4697L84.0434 59.7296C83.9653 59.9205 83.9306 59.9899 83.6702 59.9899H80.8499C80.6243 59.9899 80.5462 59.9552 80.4767 59.7296L76.2592 47.0424H76.1464L71.7033 59.7296C71.6252 59.9205 71.5905 59.9899 71.3301 59.9899H68.5445C68.3189 59.9899 68.2408 59.9552 68.1714 59.7296L63.3551 45.3068C62.3745 42.3736 62.0013 42.1827 60.9426 41.9918L60.4566 41.879C60.231 41.8443 60.1963 41.8009 60.1963 41.5753V40.3343C60.1963 40.074 60.231 40.0306 60.4566 40.0306H69.9503C70.176 40.0306 70.2107 40.0653 70.2107 40.3343V41.5753C70.2107 41.8009 70.176 41.879 69.9503 41.879L69.1606 41.9571C68.5966 41.9918 68.3362 42.148 68.3362 42.7121C68.3362 43.198 68.5272 43.9964 68.9003 45.3068L71.3475 53.8199H71.3822L73.9422 46.513C74.1678 45.8014 74.5844 44.5171 74.5844 43.4237C74.5844 42.6687 74.3588 42.0265 73.6038 41.9571L73.005 41.879C72.7794 41.879 72.7446 41.8009 72.7446 41.5753V40.3343C72.7446 40.074 72.7794 40.0306 73.005 40.0306H81.44C81.6656 40.0306 81.6656 40.0653 81.6656 40.3343V41.5753C81.6656 41.8009 81.6656 41.8356 81.44 41.879L80.6503 41.9571C80.0862 41.9918 79.7825 42.2174 79.7825 42.7902C79.7825 43.2761 80.0081 44.0311 80.4247 45.3155L83.5487 53.8286H83.5835L85.5447 46.3742C85.8484 45.246 86.074 43.9617 86.074 43.0939C86.074 42.4951 85.8831 42.0439 85.1715 41.9658L84.4165 41.8877C84.1909 41.8877 84.1562 41.8096 84.1562 41.5839V40.343C84.1562 40.0827 84.1909 40.0393 84.4165 40.0393H91.3416C91.5672 40.0393 91.5672 40.074 91.5672 40.343V41.5839C91.5672 41.8096 91.5325 41.8443 91.3416 41.8877L90.925 42.0005L90.899 41.9918Z" fill="#67686B"/>
<path d="M101.908 59.9912C95.2432 59.9912 92.041 56.1902 92.041 50.1243C92.041 44.0584 95.4688 39.5458 102.212 39.5458C108.954 39.5458 112.078 43.234 112.078 49.3346C112.078 55.4352 108.616 59.9912 101.908 59.9912ZM102.055 41.6199C98.7057 41.6199 97.8032 45.1258 97.8032 50.0549C97.8032 54.5761 98.671 57.9258 102.021 57.9258C105.37 57.9258 106.351 54.3852 106.351 49.4561C106.351 44.9002 105.449 41.6199 102.055 41.6199Z" fill="#67686B"/>
<path d="M114.29 59.5037C114.064 59.5037 114.029 59.469 114.029 59.2V57.959C114.029 57.7334 114.064 57.6987 114.29 57.6553L115.869 57.5772C116.85 57.4991 116.884 57.1606 116.884 54.1841V46.1656C116.884 42.2519 116.468 42.0263 115.452 41.9481L114.281 41.87C114.055 41.87 114.021 41.7919 114.021 41.5663V40.3253C114.021 40.065 114.055 40.0216 114.281 40.0216H121.171C121.397 40.0216 121.51 40.1344 121.51 40.4382V44.0135H121.622C122.863 41.3754 124.668 39.5356 127.124 39.5356C129.346 39.5356 130.63 41.1931 130.63 43.4147C130.63 45.1503 129.65 45.94 127.992 45.94C126.335 45.94 125.545 44.9247 125.545 43.8313C125.545 43.5275 125.623 43.1197 125.692 42.8159H125.467C124.07 42.8159 123.098 44.135 122.074 45.9834V54.1928C122.074 57.1693 122.108 57.5425 123.089 57.5859L125.536 57.664C125.762 57.664 125.797 57.7421 125.797 57.9677V59.2087C125.797 59.469 125.762 59.5124 125.536 59.5124H114.272L114.29 59.5037Z" fill="#67686B"/>
<path d="M145.81 59.5047C145.549 59.5047 145.471 59.4266 145.324 59.2009L140.048 50.6184C138.998 51.7119 138.616 52.3888 138.616 53.6644V54.3413C138.616 57.1616 138.65 57.5087 139.631 57.5782L140.837 57.6563C141.063 57.691 141.098 57.7344 141.098 57.96V59.2009C141.098 59.4613 141.063 59.5047 140.837 59.5047H130.823C130.597 59.5047 130.562 59.47 130.562 59.2009V57.96C130.562 57.7344 130.597 57.6997 130.823 57.6563L132.402 57.5782C133.383 57.5001 133.418 57.1616 133.418 54.1851V36.9332C133.418 33.922 133.383 33.6183 132.402 33.5402L130.823 33.462C130.597 33.4273 130.562 33.384 130.562 33.1583V31.9174C130.562 31.657 130.597 31.6136 130.823 31.6136H138.277C138.503 31.6136 138.616 31.7264 138.616 32.0302V49.5424H138.65C139.18 48.527 140.23 47.3555 142.417 45.0992C143.432 44.0492 143.927 43.5198 143.927 42.843C143.927 42.4264 143.666 42.0533 142.911 41.9752L141.974 41.8623C141.748 41.8623 141.714 41.7842 141.714 41.5586V40.3177C141.714 40.0573 141.748 40.0139 141.974 40.0139H150.973C151.199 40.0139 151.199 40.0486 151.199 40.3177V41.5586C151.199 41.7842 151.199 41.8623 150.973 41.8623L150.331 41.9752C148.934 42.1661 147.918 42.7648 145.471 45.1773L143.701 46.8695L148.257 54.2111C149.914 56.8839 150.331 57.4914 151.121 57.5608L151.65 57.6389C151.876 57.6736 151.91 57.717 151.91 57.9427V59.1836C151.91 59.4439 151.91 59.4873 151.685 59.4873H145.81V59.5047Z" fill="#67686B"/>
<path d="M60.1359 56.8325L59.3462 56.0081C59.1206 55.8172 59.0425 55.8172 58.895 55.9734C58.409 56.5374 57.6887 57.0234 56.7515 57.0234C54.7208 57.0234 54.0787 55.444 54.0787 52.884V42.5659H58.3309C58.5565 42.5659 58.6346 42.5312 58.6346 42.2622V40.3009C58.6346 40.0753 58.5565 40.0406 58.3309 40.0406H54.0787V34.1309C54.0787 33.9053 54.044 33.8271 53.8878 33.8271H53.289C53.0286 33.8271 52.9505 33.9052 52.7249 34.0875C51.7096 34.8425 50.3905 35.5975 49.1496 36.1181C48.9587 36.1963 48.8892 36.309 48.8892 36.5347V40.0406L46.2945 40.3009C46.0689 40.3356 46.0342 40.379 46.0342 40.6047V42.2622C46.0342 42.4965 46.0689 42.5485 46.2598 42.5572H51.6662L48.8892 44.0151V53.8212C48.8892 58.1863 51.484 60 54.3911 60C56.8036 60 58.8342 59.0627 60.188 57.249C60.3355 57.0581 60.3008 56.9887 60.1533 56.8325H60.1359Z" fill="#67686B"/>
<path d="M12.4095 28.9428H0.305465C0.0763662 28.9428 0 28.9046 0 28.6755V27.9501C0 27.721 0.0763662 27.6828 0.305465 27.6828L2.02371 27.6064C2.9401 27.5682 2.97828 27.3391 2.97828 24.4372V7.67481C2.97828 4.77289 2.9401 4.54379 2.02371 4.50561L0.305465 4.42924C0.0763662 4.42924 0 4.39106 0 4.16196V3.43648C0 3.20738 0.0763662 3.1692 0.305465 3.1692H12.5623C16.8006 3.1692 21.6498 4.62016 21.6498 10.5004C21.6498 16.266 17.3351 18.2134 11.875 18.2134H8.85849V24.4372C8.85849 27.3391 8.89667 27.6064 9.81307 27.6064L12.4095 27.6828C12.6386 27.6828 12.715 27.721 12.715 27.9501V28.6755C12.715 28.9046 12.6386 28.9428 12.4095 28.9428ZM10.8822 16.7242C14.0514 16.7242 15.5024 15.1587 15.5024 10.6531C15.5024 5.76565 13.8605 4.65834 11.0349 4.65834H8.85849V16.7242H10.8822Z" fill="#C01823"/>
<path d="M34.8719 28.9428H23.5316C23.3025 28.9428 23.2261 28.9046 23.2261 28.6755V28.0264C23.2261 27.7973 23.3025 27.7591 23.5316 27.7591L25.1352 27.6828C26.0898 27.6828 26.128 27.4537 26.128 24.5518V14.2805C26.128 10.6531 25.7844 10.5004 24.8298 10.4622L23.5316 10.424C23.3025 10.3858 23.2261 10.3476 23.2261 10.1185V9.46942C23.2261 9.24032 23.3025 9.20214 23.5316 9.20214H30.5572C30.8245 9.20214 30.9009 9.35487 30.9009 9.66034V13.0586H31.0154C32.2373 10.3476 33.9937 8.70576 36.3229 8.70576C38.5375 8.70576 40.0267 10.5004 40.0267 12.6768C40.0267 14.3187 38.9957 15.0442 37.3538 15.0442C35.6738 15.0442 35.0247 14.0514 35.0247 12.9441C35.0247 12.2186 35.292 11.4549 35.7502 10.8058C35.5974 10.7676 35.4065 10.7295 35.2538 10.7295C33.7264 10.7295 32.5046 12.0659 31.3973 14.395V24.5518C31.3973 27.4537 31.4355 27.6828 32.3519 27.6828L34.8719 27.7591C35.101 27.7591 35.1774 27.7973 35.1774 28.0264V28.6755C35.1774 28.9046 35.101 28.9428 34.8719 28.9428Z" fill="#C01823"/>
<path d="M60.7738 18.6334C60.7738 24.8954 57.1083 29.4392 50.4644 29.4392C43.9351 29.4392 40.4604 25.5827 40.4604 19.4352C40.4604 13.1732 44.126 8.70576 50.7699 8.70576C57.2992 8.70576 60.7738 12.4477 60.7738 18.6334ZM54.97 18.7479C54.97 13.3259 54.0536 10.0803 50.6553 10.0803C47.257 10.0803 46.3024 13.5168 46.3024 19.3589C46.3024 24.7427 47.2188 28.0646 50.6171 28.0646C54.0154 28.0646 54.97 24.5136 54.97 18.7479Z" fill="#C01823"/>
<path d="M73.9864 28.9428H62.6078C62.3787 28.9428 62.3024 28.9046 62.3024 28.6755V28.0264C62.3024 27.7973 62.3787 27.7591 62.6078 27.7591L64.2497 27.6828C65.2043 27.6828 65.2425 27.4537 65.2425 24.5518V10.8058H62.6078C62.3787 10.8058 62.3024 10.7676 62.3024 10.5385V9.66034C62.3024 9.43123 62.3787 9.39305 62.6078 9.35487L65.2425 9.20214V7.71299C65.2425 3.55103 68.4498 0.687297 73.2609 0.687297C76.0483 0.687297 78.7211 2.13826 78.7211 4.54379C78.7211 5.99475 77.7283 6.68205 76.201 6.68205C74.5591 6.68205 73.91 5.80384 73.91 4.69653C73.91 3.81831 74.2155 3.05465 74.6737 2.2528C74.33 2.13826 73.8337 2.02371 73.4518 2.02371C71.2754 2.02371 70.4735 3.55103 70.4735 6.26203V9.20214H74.7882C75.0173 9.20214 75.0937 9.24032 75.0937 9.46942V10.5385C75.0937 10.7676 75.0173 10.8058 74.7882 10.8058H70.4735V24.5518C70.4735 27.4537 70.5117 27.6828 71.4663 27.6828L73.9864 27.7591C74.2155 27.7591 74.2537 27.7973 74.2537 28.0264V28.6755C74.2537 28.9046 74.2155 28.9428 73.9864 28.9428Z" fill="#C01823"/>
<path d="M93.9129 23.4444C93.2256 26.6518 90.5528 29.4392 85.7799 29.4392C79.5561 29.4392 75.6232 25.6209 75.6232 19.397C75.6232 13.4405 79.1742 8.70576 85.5126 8.70576C89.9801 8.70576 94.0275 11.2258 94.0275 16.8769V17.1442C94.0275 18.0988 93.722 18.4043 92.5383 18.4043H81.427V19.0916C81.427 23.8645 82.6489 27.4155 87.0781 27.4155C90.1328 27.4155 91.9656 25.6591 92.6911 23.2153C92.7674 22.9862 92.8438 22.9099 93.0729 22.9481L93.722 23.0626C93.9511 23.1008 93.9893 23.2153 93.9129 23.4444ZM88.7582 15.5787C88.7582 11.7986 87.6127 10.0422 85.2072 10.0422C82.3816 10.0422 81.427 12.6386 81.427 17.0297H87.0781C88.4145 17.0297 88.7582 16.7242 88.7582 15.5787Z" fill="#C01823"/>
<path d="M111.25 23.2535C111.25 27.0337 107.699 29.4392 103.27 29.4392C101.361 29.4392 99.4519 29.0192 98.1536 28.1792L98.0773 28.8665C98.0009 29.0956 98.0009 29.1719 97.7718 29.1719H97.2372C97.0081 29.1719 96.97 29.0956 96.97 28.8665L96.7027 22.6044C96.7027 22.3753 96.7409 22.299 96.97 22.299H97.6572C97.8864 22.299 97.9245 22.3753 97.9627 22.6044L98.0391 23.3299C98.3446 25.6591 100.368 28.141 103.27 28.141C105.561 28.141 106.974 27.1482 106.974 25.3536C106.974 23.2153 104.95 22.2226 102.507 21.1153C99.7191 19.7789 97.0081 18.2515 97.0081 14.5478C97.0081 11.264 99.7191 8.70576 103.996 8.70576C105.599 8.70576 107.279 9.12577 108.387 9.88943L108.501 9.24032C108.539 9.01122 108.578 8.93485 108.769 8.93485H109.303C109.532 8.93485 109.57 9.01122 109.57 9.24032V15.006C109.57 15.2733 109.532 15.3496 109.303 15.3496H108.654C108.425 15.3496 108.349 15.2733 108.349 15.006V14.5478C108.272 11.7986 106.287 10.004 104.034 10.004C102.125 10.004 101.17 10.9586 101.17 12.3713C101.17 14.2805 102.927 15.1969 105.523 16.4569C108.654 17.9843 111.25 19.3589 111.25 23.2535Z" fill="#C01823"/>
<path d="M128.44 23.2535C128.44 27.0337 124.889 29.4392 120.46 29.4392C118.551 29.4392 116.642 29.0192 115.344 28.1792L115.267 28.8665C115.191 29.0956 115.191 29.1719 114.962 29.1719H114.427C114.198 29.1719 114.16 29.0956 114.16 28.8665L113.893 22.6044C113.893 22.3753 113.931 22.299 114.16 22.299H114.847C115.076 22.299 115.114 22.3753 115.153 22.6044L115.229 23.3299C115.534 25.6591 117.558 28.141 120.46 28.141C122.751 28.141 124.164 27.1482 124.164 25.3536C124.164 23.2153 122.14 22.2226 119.696 21.1153C116.909 19.7789 114.198 18.2515 114.198 14.5478C114.198 11.264 116.909 8.70576 121.186 8.70576C122.789 8.70576 124.469 9.12577 125.577 9.88943L125.691 9.24032C125.729 9.01122 125.768 8.93485 125.958 8.93485H126.493C126.722 8.93485 126.76 9.01122 126.76 9.24032V15.006C126.76 15.2733 126.722 15.3496 126.493 15.3496H125.844C125.615 15.3496 125.538 15.2733 125.538 15.006V14.5478C125.462 11.7986 123.477 10.004 121.224 10.004C119.315 10.004 118.36 10.9586 118.36 12.3713C118.36 14.2805 120.116 15.1969 122.713 16.4569C125.844 17.9843 128.44 19.3589 128.44 23.2535Z" fill="#C01823"/>
<path d="M141.048 28.9428H130.586C130.357 28.9428 130.281 28.9046 130.281 28.6755V28.0264C130.281 27.7973 130.357 27.7591 130.586 27.7591L132.19 27.6828C133.144 27.6828 133.182 27.4537 133.182 24.5518V13.6314C133.182 10.6913 133.144 10.4622 132.19 10.4622L130.586 10.424C130.357 10.424 130.281 10.3476 130.281 10.1185V9.46942C130.281 9.24032 130.357 9.20214 130.586 9.20214H138.108C138.337 9.20214 138.452 9.35487 138.452 9.66034V24.5518C138.452 27.4537 138.49 27.6828 139.406 27.6828L141.048 27.7591C141.277 27.7591 141.354 27.7973 141.354 28.0264V28.6755C141.354 28.9046 141.277 28.9428 141.048 28.9428ZM138.795 2.74918C138.795 4.35288 137.574 5.53655 135.855 5.53655C134.099 5.53655 132.801 4.39106 132.801 2.74918C132.801 1.14549 134.061 0 135.779 0C137.535 0 138.795 1.14549 138.795 2.74918Z" fill="#C01823"/>
<path d="M163.279 18.6334C163.279 24.8954 159.614 29.4392 152.97 29.4392C146.44 29.4392 142.966 25.5827 142.966 19.4352C142.966 13.1732 146.631 8.70576 153.275 8.70576C159.804 8.70576 163.279 12.4477 163.279 18.6334ZM157.475 18.7479C157.475 13.3259 156.559 10.0803 153.161 10.0803C149.762 10.0803 148.808 13.5168 148.808 19.3589C148.808 24.7427 149.724 28.0646 153.122 28.0646C156.521 28.0646 157.475 24.5136 157.475 18.7479Z" fill="#C01823"/>
<path d="M188.672 28.9428H178.592C178.363 28.9428 178.286 28.9046 178.286 28.6755V28.0264C178.286 27.7973 178.363 27.7591 178.592 27.7591L179.814 27.6828C180.768 27.6446 180.806 27.4537 180.806 24.5518V15.1969C180.806 12.1422 179.508 11.0731 177.332 11.0731C175.232 11.0731 173.972 12.295 173.055 14.0514V24.5518C173.055 27.4537 173.093 27.6446 174.01 27.6828L175.27 27.7591C175.499 27.7591 175.575 27.7973 175.575 28.0264V28.6755C175.575 28.9046 175.499 28.9428 175.27 28.9428H165.189C164.96 28.9428 164.884 28.9046 164.884 28.6755V28.0264C164.884 27.7973 164.96 27.7591 165.189 27.7591L166.793 27.6828C167.748 27.6828 167.786 27.4537 167.786 24.5518V13.6314C167.786 10.6913 167.748 10.5004 166.793 10.4622L165.189 10.424C164.96 10.3858 164.884 10.3476 164.884 10.1185V9.46942C164.884 9.24032 164.96 9.20214 165.189 9.20214H172.368C172.635 9.20214 172.712 9.35487 172.712 9.66034V12.5623H172.826C173.972 10.3858 176.148 8.70576 179.585 8.70576C182.639 8.70576 186.076 10.1567 186.076 15.3496V24.5518C186.076 27.4537 186.114 27.6828 187.03 27.6828L188.672 27.7591C188.901 27.7591 188.978 27.7973 188.978 28.0264V28.6755C188.978 28.9046 188.901 28.9428 188.672 28.9428Z" fill="#C01823"/>
<path d="M207.543 25.0863C207.543 27.0718 207.887 27.721 208.651 27.721C209.223 27.721 209.643 27.2628 209.911 26.69C209.987 26.4991 210.102 26.4609 210.292 26.5373L210.751 26.7282C210.942 26.8046 210.98 26.9191 210.865 27.1482C210.331 28.5228 209.032 29.4392 206.932 29.4392C204.527 29.4392 202.885 28.1792 202.618 25.7736H202.503C201.128 28.1792 199.143 29.4392 196.356 29.4392C193.186 29.4392 190.781 27.721 190.781 24.3608C190.781 20.9244 192.766 19.5498 197.425 18.1752C202.274 16.7624 202.312 16.4569 202.312 15.2733V14.3569C202.312 11.4168 200.594 10.3094 198.303 10.3094C197.157 10.3094 196.126 10.6149 195.248 11.0731C195.783 11.9513 195.974 12.8677 195.974 13.5932C195.974 14.6623 195.477 15.5787 193.912 15.5787C192.461 15.5787 191.545 14.9678 191.545 13.5932C191.545 11.2258 195.286 8.70576 199.83 8.70576C203.839 8.70576 207.543 10.424 207.543 15.0442V25.0863ZM202.312 24.399V17.9079C201.052 18.2897 199.792 18.7479 198.761 19.2443C196.928 20.1225 196.165 21.3062 196.165 23.4063C196.165 25.6209 197.043 27.0337 198.723 27.0337C200.25 27.0337 201.472 25.9645 202.312 24.399Z" fill="#C01823"/>
<path d="M222.262 28.9428H211.8C211.571 28.9428 211.494 28.9046 211.494 28.6755V28.0264C211.494 27.7973 211.571 27.7591 211.8 27.7591L213.403 27.6828C214.358 27.6828 214.396 27.4537 214.396 24.5518V5.07836C214.396 2.17644 214.358 1.94734 213.403 1.94734L211.8 1.87097C211.571 1.87097 211.494 1.83279 211.494 1.60369V0.954578C211.494 0.725479 211.571 0.687297 211.8 0.687297H219.322C219.551 0.687297 219.665 0.840027 219.665 1.14549V24.5518C219.665 27.4537 219.704 27.6828 220.62 27.6828L222.262 27.7591C222.491 27.7591 222.567 27.7973 222.567 28.0264V28.6755C222.567 28.9046 222.491 28.9428 222.262 28.9428Z" fill="#C01823"/>
</svg>
