<svg width="293" height="60" viewBox="0 0 293 60" fill="none" xmlns="http://www.w3.org/2000/svg">
<g clip-path="url(#clip0_437_45)">
<path d="M19.5428 59.9906C19.3172 59.9906 19.2391 59.9125 19.0916 59.7303L5.79689 40.8644H5.71879V49.8287C5.71879 56.2678 6.73412 57.2831 8.92097 57.474L10.0144 57.5521C10.24 57.5868 10.2747 57.665 10.2747 57.8906V59.2096C10.2747 59.47 10.24 59.5134 10.0144 59.5134H0.260329C0.0347014 59.5134 0 59.4786 0 59.2096V57.8906C0 57.665 0.0347014 57.5868 0.260329 57.5521L0.789687 57.474C2.29966 57.2831 3.12407 56.2331 3.12407 49.8287V39.5887C3.12407 36.6122 3.12406 36.2737 2.14345 36.1956L0.295048 36.0828C0.0694207 36.0481 0.0347061 36.0047 0.0347061 35.7791V34.3819C0.0347061 34.1216 0.0694207 34.0782 0.295048 34.0782H7.74943C7.97506 34.0782 8.08787 34.1563 8.2354 34.3819L19.7598 51.1825H19.8379V43.7628C19.8379 37.3238 18.8225 36.3431 16.601 36.1175L15.5423 36.0047C15.3166 35.97 15.3166 35.9266 15.3166 35.701V34.3819C15.3166 34.1216 15.3166 34.0782 15.5423 34.0782H25.2182C25.4438 34.0782 25.4786 34.1129 25.4786 34.3819V35.701C25.4786 35.9266 25.4438 35.9613 25.2182 36.0047L24.7323 36.1175C23.2657 36.3431 22.4326 37.3585 22.4326 43.7628V59.7303C22.4326 59.9212 22.3198 59.9906 22.0594 59.9906H19.5341H19.5428Z" fill="#67686B"/>
<path d="M36.2996 59.9912C29.7477 59.9912 26.2852 56.0774 26.2852 50.0896C26.2852 44.1018 29.7477 39.5458 36.0739 39.5458C40.4824 39.5458 44.4308 41.8802 44.4308 47.7899V48.1631C44.4308 49.2131 44.1271 49.5168 42.808 49.5168H31.9259V49.8553C31.9259 54.1856 34.0346 57.0493 38.1393 57.0493C40.2133 57.0493 41.758 56.3291 42.8862 55.3571C43.0771 55.2096 43.1465 55.2443 43.3027 55.3918L44.1705 56.2162C44.2833 56.3291 44.3614 56.4419 44.2052 56.6328C42.244 58.6634 40.0658 59.9825 36.2996 59.9825V59.9912ZM35.7702 41.6199C33.0193 41.6199 31.9693 43.6505 31.9693 47.4949H37.6533C38.9377 47.4949 39.2327 47.1912 39.2327 46.1758C39.2327 43.1299 37.9918 41.6199 35.7702 41.6199Z" fill="#67686B"/>
<path d="M90.9 41.9918C90.145 42.1393 89.6938 42.4084 89.2772 43.3456C88.9735 44.0225 88.635 44.925 88.1838 46.4697L84.0444 59.7296C83.9663 59.9205 83.9316 59.9899 83.6712 59.9899H80.8509C80.6253 59.9899 80.5472 59.9552 80.4777 59.7296L76.2602 47.0424H76.1474L71.7043 59.7296C71.6262 59.9205 71.5915 59.9899 71.3311 59.9899H68.5455C68.3199 59.9899 68.2418 59.9552 68.1724 59.7296L63.3561 45.3068C62.3755 42.3736 62.0023 42.1827 60.9436 41.9918L60.4576 41.879C60.232 41.8443 60.1973 41.8009 60.1973 41.5753V40.3343C60.1973 40.074 60.232 40.0306 60.4576 40.0306H69.9513C70.177 40.0306 70.2117 40.0653 70.2117 40.3343V41.5753C70.2117 41.8009 70.177 41.879 69.9513 41.879L69.1616 41.9571C68.5976 41.9918 68.3372 42.148 68.3372 42.7121C68.3372 43.198 68.5282 43.9964 68.9013 45.3068L71.3485 53.8199H71.3832L73.9432 46.513C74.1688 45.8014 74.5854 44.5171 74.5854 43.4237C74.5854 42.6687 74.3598 42.0265 73.6048 41.9571L73.006 41.879C72.7804 41.879 72.7456 41.8009 72.7456 41.5753V40.3343C72.7456 40.074 72.7804 40.0306 73.006 40.0306H81.441C81.6666 40.0306 81.6666 40.0653 81.6666 40.3343V41.5753C81.6666 41.8009 81.6666 41.8356 81.441 41.879L80.6513 41.9571C80.0872 41.9918 79.7835 42.2174 79.7835 42.7902C79.7835 43.2761 80.0091 44.0311 80.4257 45.3155L83.5497 53.8286H83.5845L85.5457 46.3742C85.8494 45.246 86.075 43.9617 86.075 43.0939C86.075 42.4951 85.8841 42.0439 85.1725 41.9658L84.4175 41.8877C84.1919 41.8877 84.1572 41.8096 84.1572 41.5839V40.343C84.1572 40.0827 84.1919 40.0393 84.4175 40.0393H91.3426C91.5682 40.0393 91.5682 40.074 91.5682 40.343V41.5839C91.5682 41.8096 91.5335 41.8443 91.3426 41.8877L90.926 42.0005L90.9 41.9918Z" fill="#67686B"/>
<path d="M101.908 59.9912C95.2432 59.9912 92.041 56.1902 92.041 50.1243C92.041 44.0584 95.4688 39.5458 102.212 39.5458C108.954 39.5458 112.078 43.234 112.078 49.3346C112.078 55.4352 108.616 59.9912 101.908 59.9912ZM102.055 41.6199C98.7057 41.6199 97.8032 45.1258 97.8032 50.0549C97.8032 54.5761 98.671 57.9258 102.021 57.9258C105.37 57.9258 106.351 54.3852 106.351 49.4561C106.351 44.9002 105.449 41.6199 102.055 41.6199Z" fill="#67686B"/>
<path d="M114.29 59.5037C114.064 59.5037 114.029 59.469 114.029 59.2V57.959C114.029 57.7334 114.064 57.6987 114.29 57.6553L115.869 57.5772C116.85 57.4991 116.884 57.1606 116.884 54.1841V46.1656C116.884 42.2519 116.468 42.0263 115.452 41.9481L114.281 41.87C114.055 41.87 114.021 41.7919 114.021 41.5663V40.3253C114.021 40.065 114.055 40.0216 114.281 40.0216H121.171C121.397 40.0216 121.51 40.1344 121.51 40.4382V44.0135H121.622C122.863 41.3754 124.668 39.5356 127.124 39.5356C129.346 39.5356 130.63 41.1931 130.63 43.4147C130.63 45.1503 129.65 45.94 127.992 45.94C126.335 45.94 125.545 44.9247 125.545 43.8313C125.545 43.5275 125.623 43.1197 125.692 42.8159H125.467C124.07 42.8159 123.098 44.135 122.074 45.9834V54.1928C122.074 57.1693 122.108 57.5425 123.089 57.5859L125.536 57.664C125.762 57.664 125.797 57.7421 125.797 57.9677V59.2087C125.797 59.469 125.762 59.5124 125.536 59.5124H114.272L114.29 59.5037Z" fill="#67686B"/>
<path d="M145.811 59.5047C145.55 59.5047 145.472 59.4266 145.325 59.2009L140.049 50.6184C138.999 51.7119 138.617 52.3888 138.617 53.6644V54.3413C138.617 57.1616 138.651 57.5087 139.632 57.5782L140.838 57.6563C141.064 57.691 141.099 57.7344 141.099 57.96V59.2009C141.099 59.4613 141.064 59.5047 140.838 59.5047H130.824C130.598 59.5047 130.562 59.47 130.562 59.2009V57.96C130.562 57.7344 130.598 57.6997 130.824 57.6563L132.402 57.5782C133.383 57.5001 133.419 57.1616 133.419 54.1851V36.9332C133.419 33.922 133.383 33.6183 132.402 33.5402L130.824 33.462C130.598 33.4273 130.562 33.384 130.562 33.1583V31.9174C130.562 31.657 130.598 31.6136 130.824 31.6136H138.277C138.503 31.6136 138.617 31.7264 138.617 32.0302V49.5424H138.65C139.18 48.527 140.231 47.3555 142.418 45.0992C143.433 44.0492 143.928 43.5198 143.928 42.843C143.928 42.4264 143.666 42.0533 142.911 41.9752L141.975 41.8623C141.749 41.8623 141.715 41.7842 141.715 41.5586V40.3177C141.715 40.0573 141.749 40.0139 141.975 40.0139H150.974C151.2 40.0139 151.2 40.0486 151.2 40.3177V41.5586C151.2 41.7842 151.2 41.8623 150.974 41.8623L150.331 41.9752C148.934 42.1661 147.918 42.7648 145.471 45.1773L143.702 46.8695L148.258 54.2111C149.915 56.8839 150.332 57.4914 151.122 57.5608L151.65 57.6389C151.876 57.6736 151.911 57.717 151.911 57.9427V59.1836C151.911 59.4439 151.911 59.4873 151.686 59.4873H145.811V59.5047Z" fill="#67686B"/>
<path d="M60.1369 56.8326L59.3472 56.0081C59.1216 55.8172 59.0435 55.8172 58.896 55.9734C58.41 56.5374 57.6897 57.0234 56.7525 57.0234C54.7218 57.0234 54.0797 55.444 54.0797 52.884V42.5659H58.3319C58.5575 42.5659 58.6356 42.5312 58.6356 42.2622V40.3009C58.6356 40.0753 58.5575 40.0406 58.3319 40.0406H54.0797V34.131C54.0797 33.9054 54.045 33.8271 53.8888 33.8271H53.29C53.0296 33.8271 52.9515 33.9053 52.7259 34.0876C51.7106 34.8426 50.3915 35.5975 49.1506 36.1181C48.9597 36.1963 48.8902 36.309 48.8902 36.5347V40.0406L46.2955 40.3009C46.0699 40.3356 46.0352 40.379 46.0352 40.6047V42.2622C46.0352 42.4965 46.0699 42.5486 46.2608 42.5573H51.6672L48.8902 44.0151V53.8213C48.8902 58.1864 51.485 60 54.3921 60C56.8046 60 58.8352 59.0628 60.189 57.2491C60.3365 57.0582 60.3018 56.9888 60.1543 56.8326H60.1369Z" fill="#67686B"/>
<path d="M5.42406 29.2108C3.33406 29.2108 2.01405 27.6208 2.01405 25.3308C2.01405 24.5208 2.09406 23.8908 2.20406 23.0808L3.95406 10.6708H1.20406C1.01406 10.6708 0.974054 10.5908 1.01405 10.3608L1.16406 9.43079C1.20406 9.16079 1.24405 9.12078 1.43405 9.12078L4.22406 8.93079L4.69406 5.40079C4.73406 5.21079 4.77406 5.17079 5.00406 5.01079C5.85406 4.47079 6.82406 3.77079 7.56406 3.07079C7.75406 2.88079 7.79406 2.80078 8.03406 2.80078H8.07405C8.26405 2.80078 8.30405 2.84079 8.26405 3.07079L7.41406 8.93079H11.6041C11.9141 8.93079 11.9141 8.97078 11.8741 9.24078L11.7541 10.3608C11.7141 10.6308 11.6741 10.6708 11.4441 10.6708H7.13406L5.50406 22.0008C5.38406 22.7808 5.27406 23.7808 5.27406 24.6008C5.27406 25.6908 5.74406 26.5008 6.78406 26.5008C8.25406 26.5008 9.34406 24.8708 10.1941 23.3608C10.3141 23.1708 10.3841 23.1308 10.5841 23.2408L11.2841 23.6708C11.4741 23.7908 11.4741 23.8608 11.3641 24.1008C10.2041 26.3508 8.30405 29.2208 5.43405 29.2208L5.42406 29.2108Z" fill="#C01823"/>
<path d="M26.2154 28.9C25.9454 28.9 25.9054 28.82 25.9454 28.55L27.7654 15.67C27.8454 15.09 27.9554 14.39 27.9554 13.65C27.9554 12.14 27.3354 10.86 25.5554 10.86C23.1854 10.86 21.2454 13.11 19.5454 15.16L17.7254 28.39C17.6854 28.66 17.6454 28.7 17.4554 28.7H14.7754C14.5054 28.7 14.4654 28.62 14.5054 28.35L17.8054 5.08C18.2754 1.78 18.1554 1.63 17.3054 1.59L15.5254 1.51C15.3354 1.51 15.2954 1.43 15.3354 1.2L15.4554 0.309998C15.4954 0.0399975 15.5354 0 15.6854 0H21.3854C21.6554 0 21.6954 0.0799985 21.6554 0.349998L19.9054 12.84H19.9854C21.9654 10.36 23.9854 8.42 26.8154 8.42C29.4954 8.42 31.2354 10.28 31.2354 12.76C31.2354 13.5 31.1954 14.31 31.0754 15.13L29.8754 23.62C29.4054 26.92 29.5254 27.19 30.3754 27.19H32.1954C32.3554 27.19 32.3854 27.27 32.3554 27.5L32.2354 28.39C32.1954 28.66 32.1554 28.7 31.9654 28.7L26.2254 28.89L26.2154 28.9Z" fill="#C01823"/>
<path d="M44.9116 8.42188C47.5516 8.42188 50.3016 9.62187 50.3016 12.7319C50.3016 18.1619 43.9416 19.4419 39.4016 19.4419H38.7816C38.7016 20.1419 38.6616 20.9119 38.6616 21.3419C38.6616 24.2119 39.6315 26.7319 42.5415 26.7319C44.5215 26.7319 46.3816 25.6419 48.0916 23.2419C48.2116 23.0519 48.3216 23.0519 48.4816 23.1619L49.1815 23.7019C49.3715 23.8519 49.3716 23.8919 49.2216 24.1319C47.1316 27.0819 44.7616 29.2119 41.1116 29.2119C36.8816 29.2119 35.1016 26.3019 35.1016 22.1119C35.1016 15.8619 38.1316 8.42188 44.9116 8.42188ZM44.4416 10.1719C41.1416 10.1719 39.6716 13.8219 38.9716 17.9719H39.2016C42.5816 17.9719 46.8816 17.1619 46.8816 12.8119C46.8816 10.9519 45.7616 10.1719 44.4416 10.1719Z" fill="#C01823"/>
</g>
<path d="M66.4095 28.9428H54.3055C54.0764 28.9428 54 28.9046 54 28.6755V27.9501C54 27.721 54.0764 27.6828 54.3055 27.6828L56.0237 27.6064C56.9401 27.5682 56.9783 27.3391 56.9783 24.4372V7.6748C56.9783 4.77288 56.9401 4.54378 56.0237 4.5056L54.3055 4.42923C54.0764 4.42923 54 4.39105 54 4.16195V3.43647C54 3.20737 54.0764 3.16919 54.3055 3.16919H66.5623C70.8006 3.16919 75.6498 4.62015 75.6498 10.5004C75.6498 16.266 71.3351 18.2134 65.875 18.2134H62.8585V24.4372C62.8585 27.3391 62.8967 27.6064 63.8131 27.6064L66.4095 27.6828C66.6386 27.6828 66.715 27.721 66.715 27.9501V28.6755C66.715 28.9046 66.6386 28.9428 66.4095 28.9428ZM64.8822 16.7242C68.0514 16.7242 69.5024 15.1587 69.5024 10.6531C69.5024 5.76564 67.8605 4.65833 65.0349 4.65833H62.8585V16.7242H64.8822Z" fill="#C01823"/>
<path d="M88.8724 28.9429H77.5321C77.303 28.9429 77.2266 28.9047 77.2266 28.6756V28.0265C77.2266 27.7974 77.303 27.7592 77.5321 27.7592L79.1357 27.6828C80.0903 27.6828 80.1285 27.4538 80.1285 24.5519V14.2806C80.1285 10.6532 79.7849 10.5005 78.8303 10.4623L77.5321 10.4241C77.303 10.3859 77.2266 10.3477 77.2266 10.1186V9.46947C77.2266 9.24037 77.303 9.20219 77.5321 9.20219H84.5577C84.825 9.20219 84.9014 9.35492 84.9014 9.66039V13.0587H85.0159C86.2378 10.3477 87.9942 8.70581 90.3234 8.70581C92.538 8.70581 94.0272 10.5005 94.0272 12.6769C94.0272 14.3188 92.9962 15.0443 91.3543 15.0443C89.6743 15.0443 89.0252 14.0515 89.0252 12.9442C89.0252 12.2187 89.2925 11.455 89.7507 10.8059C89.5979 10.7677 89.407 10.7296 89.2543 10.7296C87.7269 10.7296 86.5051 12.066 85.3978 14.3951V24.5519C85.3978 27.4538 85.436 27.6828 86.3524 27.6828L88.8724 27.7592C89.1015 27.7592 89.1779 27.7974 89.1779 28.0265V28.6756C89.1779 28.9047 89.1015 28.9429 88.8724 28.9429Z" fill="#C01823"/>
<path d="M114.774 18.6335C114.774 24.8955 111.109 29.4393 104.465 29.4393C97.9356 29.4393 94.4609 25.5828 94.4609 19.4353C94.4609 13.1733 98.1265 8.70581 104.77 8.70581C111.3 8.70581 114.774 12.4478 114.774 18.6335ZM108.971 18.748C108.971 13.326 108.054 10.0804 104.656 10.0804C101.258 10.0804 100.303 13.5169 100.303 19.359C100.303 24.7428 101.219 28.0647 104.618 28.0647C108.016 28.0647 108.971 24.5137 108.971 18.748Z" fill="#C01823"/>
<path d="M127.987 28.9428H116.608C116.379 28.9428 116.303 28.9046 116.303 28.6755V28.0264C116.303 27.7973 116.379 27.7591 116.608 27.7591L118.25 27.6828C119.205 27.6828 119.243 27.4537 119.243 24.5518V10.8058H116.608C116.379 10.8058 116.303 10.7676 116.303 10.5385V9.6603C116.303 9.43119 116.379 9.39301 116.608 9.35483L119.243 9.2021V7.71295C119.243 3.55099 122.45 0.687256 127.261 0.687256C130.049 0.687256 132.721 2.13822 132.721 4.54375C132.721 5.99471 131.729 6.68201 130.201 6.68201C128.559 6.68201 127.91 5.8038 127.91 4.69649C127.91 3.81827 128.216 3.05461 128.674 2.25276C128.33 2.13822 127.834 2.02367 127.452 2.02367C125.276 2.02367 124.474 3.55099 124.474 6.26199V9.2021H128.789C129.018 9.2021 129.094 9.24028 129.094 9.46938V10.5385C129.094 10.7676 129.018 10.8058 128.789 10.8058H124.474V24.5518C124.474 27.4537 124.512 27.6828 125.467 27.6828L127.987 27.7591C128.216 27.7591 128.254 27.7973 128.254 28.0264V28.6755C128.254 28.9046 128.216 28.9428 127.987 28.9428Z" fill="#C01823"/>
<path d="M147.913 23.4445C147.225 26.6519 144.553 29.4393 139.78 29.4393C133.556 29.4393 129.623 25.6209 129.623 19.397C129.623 13.4405 133.174 8.70581 139.512 8.70581C143.98 8.70581 148.027 11.2259 148.027 16.877V17.1442C148.027 18.0988 147.722 18.4044 146.538 18.4044H135.427V19.0917C135.427 23.8646 136.649 27.4156 141.078 27.4156C144.133 27.4156 145.965 25.6592 146.691 23.2154C146.767 22.9863 146.844 22.9099 147.073 22.9481L147.722 23.0626C147.951 23.1008 147.989 23.2154 147.913 23.4445ZM142.758 15.5788C142.758 11.7987 141.613 10.0423 139.207 10.0423C136.381 10.0423 135.427 12.6386 135.427 17.0297H141.078C142.414 17.0297 142.758 16.7243 142.758 15.5788Z" fill="#C01823"/>
<path d="M165.25 23.2536C165.25 27.0338 161.699 29.4393 157.27 29.4393C155.361 29.4393 153.452 29.0192 152.154 28.1792L152.078 28.8666C152.001 29.0957 152.001 29.172 151.772 29.172H151.238C151.009 29.172 150.97 29.0957 150.97 28.8666L150.703 22.6045C150.703 22.3754 150.741 22.2991 150.97 22.2991H151.658C151.887 22.2991 151.925 22.3754 151.963 22.6045L152.04 23.33C152.345 25.6592 154.368 28.1411 157.27 28.1411C159.561 28.1411 160.974 27.1482 160.974 25.3536C160.974 23.2153 158.95 22.2226 156.507 21.1153C153.72 19.7789 151.009 18.2516 151.009 14.5479C151.009 11.2641 153.72 8.70581 157.996 8.70581C159.599 8.70581 161.279 9.12582 162.387 9.88948L162.501 9.24037C162.539 9.01127 162.578 8.9349 162.769 8.9349H163.303C163.532 8.9349 163.57 9.01127 163.57 9.24037V15.0061C163.57 15.2734 163.532 15.3497 163.303 15.3497H162.654C162.425 15.3497 162.349 15.2734 162.349 15.0061V14.5479C162.272 11.7987 160.287 10.0041 158.034 10.0041C156.125 10.0041 155.17 10.9587 155.17 12.3714C155.17 14.2806 156.927 15.197 159.523 16.457C162.654 17.9844 165.25 19.359 165.25 23.2536Z" fill="#C01823"/>
<path d="M182.44 23.2536C182.44 27.0338 178.889 29.4393 174.46 29.4393C172.551 29.4393 170.642 29.0192 169.344 28.1792L169.267 28.8666C169.191 29.0957 169.191 29.172 168.962 29.172H168.427C168.198 29.172 168.16 29.0957 168.16 28.8666L167.893 22.6045C167.893 22.3754 167.931 22.2991 168.16 22.2991H168.847C169.076 22.2991 169.114 22.3754 169.153 22.6045L169.229 23.33C169.534 25.6592 171.558 28.1411 174.46 28.1411C176.751 28.1411 178.164 27.1482 178.164 25.3536C178.164 23.2153 176.14 22.2226 173.696 21.1153C170.909 19.7789 168.198 18.2516 168.198 14.5479C168.198 11.2641 170.909 8.70581 175.186 8.70581C176.789 8.70581 178.469 9.12582 179.577 9.88948L179.691 9.24037C179.729 9.01127 179.768 8.9349 179.958 8.9349H180.493C180.722 8.9349 180.76 9.01127 180.76 9.24037V15.0061C180.76 15.2734 180.722 15.3497 180.493 15.3497H179.844C179.615 15.3497 179.538 15.2734 179.538 15.0061V14.5479C179.462 11.7987 177.477 10.0041 175.224 10.0041C173.315 10.0041 172.36 10.9587 172.36 12.3714C172.36 14.2806 174.116 15.197 176.713 16.457C179.844 17.9844 182.44 19.359 182.44 23.2536Z" fill="#C01823"/>
<path d="M195.048 28.9428H184.586C184.357 28.9428 184.281 28.9046 184.281 28.6755V28.0264C184.281 27.7973 184.357 27.7591 184.586 27.7591L186.19 27.6828C187.144 27.6828 187.182 27.4537 187.182 24.5518V13.6314C187.182 10.6913 187.144 10.4622 186.19 10.4622L184.586 10.424C184.357 10.424 184.281 10.3476 184.281 10.1185V9.46942C184.281 9.24032 184.357 9.20214 184.586 9.20214H192.108C192.337 9.20214 192.452 9.35487 192.452 9.66034V24.5518C192.452 27.4537 192.49 27.6828 193.406 27.6828L195.048 27.7591C195.277 27.7591 195.354 27.7973 195.354 28.0264V28.6755C195.354 28.9046 195.277 28.9428 195.048 28.9428ZM192.795 2.74918C192.795 4.35288 191.574 5.53655 189.855 5.53655C188.099 5.53655 186.801 4.39106 186.801 2.74918C186.801 1.14549 188.061 0 189.779 0C191.535 0 192.795 1.14549 192.795 2.74918Z" fill="#C01823"/>
<path d="M217.28 18.6335C217.28 24.8955 213.615 29.4393 206.971 29.4393C200.441 29.4393 196.967 25.5828 196.967 19.4353C196.967 13.1733 200.632 8.70581 207.276 8.70581C213.805 8.70581 217.28 12.4478 217.28 18.6335ZM211.476 18.748C211.476 13.326 210.56 10.0804 207.162 10.0804C203.763 10.0804 202.809 13.5169 202.809 19.359C202.809 24.7428 203.725 28.0647 207.123 28.0647C210.522 28.0647 211.476 24.5137 211.476 18.748Z" fill="#C01823"/>
<path d="M242.673 28.9429H232.593C232.364 28.9429 232.287 28.9047 232.287 28.6756V28.0265C232.287 27.7974 232.364 27.7592 232.593 27.7592L233.815 27.6828C234.769 27.6446 234.807 27.4538 234.807 24.5519V15.197C234.807 12.1423 233.509 11.0732 231.333 11.0732C229.233 11.0732 227.973 12.2951 227.056 14.0515V24.5519C227.056 27.4538 227.094 27.6446 228.011 27.6828L229.271 27.7592C229.5 27.7592 229.576 27.7974 229.576 28.0265V28.6756C229.576 28.9047 229.5 28.9429 229.271 28.9429H219.19C218.961 28.9429 218.885 28.9047 218.885 28.6756V28.0265C218.885 27.7974 218.961 27.7592 219.19 27.7592L220.794 27.6828C221.749 27.6828 221.787 27.4538 221.787 24.5519V13.6315C221.787 10.6914 221.749 10.5005 220.794 10.4623L219.19 10.4241C218.961 10.3859 218.885 10.3477 218.885 10.1186V9.46947C218.885 9.24037 218.961 9.20219 219.19 9.20219H226.369C226.636 9.20219 226.713 9.35492 226.713 9.66039V12.5624H226.827C227.973 10.3859 230.149 8.70581 233.586 8.70581C236.64 8.70581 240.077 10.1568 240.077 15.3497V24.5519C240.077 27.4538 240.115 27.6828 241.031 27.6828L242.673 27.7592C242.902 27.7592 242.979 27.7974 242.979 28.0265V28.6756C242.979 28.9047 242.902 28.9429 242.673 28.9429Z" fill="#C01823"/>
<path d="M261.543 25.0863C261.543 27.0718 261.887 27.7211 262.651 27.7211C263.223 27.7211 263.643 27.2629 263.911 26.6901C263.987 26.4992 264.102 26.4609 264.292 26.5373L264.751 26.7283C264.942 26.8047 264.98 26.9192 264.865 27.1483C264.331 28.5229 263.032 29.4393 260.932 29.4393C258.527 29.4393 256.885 28.1793 256.618 25.7737H256.503C255.128 28.1793 253.143 29.4393 250.356 29.4393C247.186 29.4393 244.781 27.7211 244.781 24.3609C244.781 20.9245 246.766 19.5499 251.425 18.1753C256.274 16.7625 256.312 16.457 256.312 15.2734V14.357C256.312 11.4169 254.594 10.3095 252.303 10.3095C251.157 10.3095 250.126 10.615 249.248 11.0732C249.783 11.9514 249.974 12.8678 249.974 13.5933C249.974 14.6624 249.477 15.5788 247.912 15.5788C246.461 15.5788 245.545 14.9679 245.545 13.5933C245.545 11.2259 249.286 8.70581 253.83 8.70581C257.839 8.70581 261.543 10.4241 261.543 15.0443V25.0863ZM256.312 24.3991V17.908C255.052 18.2898 253.792 18.748 252.761 19.2444C250.928 20.1226 250.165 21.3063 250.165 23.4064C250.165 25.621 251.043 27.0338 252.723 27.0338C254.25 27.0338 255.472 25.9646 256.312 24.3991Z" fill="#C01823"/>
<path d="M276.262 28.9428H265.8C265.571 28.9428 265.494 28.9046 265.494 28.6755V28.0264C265.494 27.7973 265.571 27.7591 265.8 27.7591L267.403 27.6828C268.358 27.6828 268.396 27.4537 268.396 24.5518V5.07832C268.396 2.1764 268.358 1.9473 267.403 1.9473L265.8 1.87093C265.571 1.87093 265.494 1.83275 265.494 1.60365V0.954537C265.494 0.725438 265.571 0.687256 265.8 0.687256H273.322C273.551 0.687256 273.665 0.839986 273.665 1.14545V24.5518C273.665 27.4537 273.704 27.6828 274.62 27.6828L276.262 27.7591C276.491 27.7591 276.567 27.7973 276.567 28.0264V28.6755C276.567 28.9046 276.491 28.9428 276.262 28.9428Z" fill="#C01823"/>
<path d="M284.231 29.1063C282.455 29.1063 280.97 28.6626 279.895 27.9969L279.818 28.6284C279.741 28.8162 279.707 28.8503 279.519 28.8503H278.521C278.265 28.8503 278.222 28.8503 278.222 28.6284L278 22.774C278 22.5522 278.034 22.518 278.299 22.518H279.562C279.784 22.518 279.818 22.5522 279.861 22.774L280.006 23.6275C280.45 25.8122 282.157 27.2203 284.265 27.2203C286.373 27.2203 287.713 26.3669 287.713 24.7027C287.713 23.0386 285.827 22.1084 283.565 21.0331C280.902 19.77 278.265 18.2168 278.265 14.7008C278.265 11.5517 280.748 9 284.965 9C286.484 9 288.003 9.40963 288.814 9.92167L288.959 9.47791C288.993 9.29016 289.036 9.22189 289.258 9.22189H290.222C290.479 9.22189 290.521 9.25602 290.521 9.47791V14.9227C290.521 15.1104 290.487 15.1446 290.222 15.1446H289.002C288.78 15.1446 288.703 15.1104 288.703 14.9227L288.669 14.2229C288.524 12.1149 286.894 10.886 285.076 10.886C283.446 10.886 282.413 11.5858 282.413 12.9598C282.413 14.4021 283.855 15.1787 286.373 16.4417C289.745 18.1059 292.075 19.3689 292.075 23.0301C292.075 26.6912 289.036 29.1063 284.222 29.1063H284.231Z" fill="#C01823"/>
<defs>
<clipPath id="clip0_437_45">
<rect width="223" height="60" fill="white"/>
</clipPath>
</defs>
</svg>
