<svg width="239" height="60" viewBox="0 0 239 60" fill="none" xmlns="http://www.w3.org/2000/svg">
<g clip-path="url(#clip0_3478_311)">
<path d="M19.5428 59.9905C19.3172 59.9905 19.2391 59.9124 19.0916 59.7302L5.79689 40.8643H5.71879V49.8286C5.71879 56.2677 6.73412 57.283 8.92097 57.4739L10.0144 57.552C10.24 57.5867 10.2747 57.6649 10.2747 57.8905V59.2095C10.2747 59.4699 10.24 59.5133 10.0144 59.5133H0.260329C0.0347014 59.5133 0 59.4785 0 59.2095V57.8905C0 57.6649 0.0347014 57.5867 0.260329 57.552L0.789687 57.4739C2.29966 57.283 3.12407 56.233 3.12407 49.8286V39.5886C3.12407 36.6121 3.12406 36.2736 2.14345 36.1955L0.295048 36.0827C0.0694207 36.048 0.0347061 36.0046 0.0347061 35.779V34.3818C0.0347061 34.1215 0.0694207 34.0781 0.295048 34.0781H7.74943C7.97506 34.0781 8.08787 34.1562 8.2354 34.3818L19.7598 51.1824H19.8379V43.7627C19.8379 37.3237 18.8225 36.343 16.601 36.1174L15.5423 36.0046C15.3166 35.9699 15.3166 35.9265 15.3166 35.7009V34.3818C15.3166 34.1215 15.3166 34.0781 15.5423 34.0781H25.2182C25.4438 34.0781 25.4786 34.1128 25.4786 34.3818V35.7009C25.4786 35.9265 25.4438 35.9612 25.2182 36.0046L24.7323 36.1174C23.2657 36.343 22.4326 37.3584 22.4326 43.7627V59.7302C22.4326 59.9211 22.3198 59.9905 22.0594 59.9905H19.5341H19.5428Z" fill="#67686B"/>
<path d="M36.2996 59.9923C29.7477 59.9923 26.2852 56.0785 26.2852 50.0907C26.2852 44.1029 29.7477 39.5469 36.0739 39.5469C40.4824 39.5469 44.4308 41.8813 44.4308 47.791V48.1642C44.4308 49.2142 44.1271 49.5179 42.808 49.5179H31.9259V49.8564C31.9259 54.1867 34.0346 57.0504 38.1393 57.0504C40.2133 57.0504 41.758 56.3302 42.8862 55.3582C43.0771 55.2107 43.1465 55.2454 43.3027 55.3929L44.1705 56.2173C44.2833 56.3302 44.3614 56.443 44.2052 56.6339C42.244 58.6645 40.0658 59.9836 36.2996 59.9836V59.9923ZM35.7702 41.621C33.0193 41.621 31.9693 43.6516 31.9693 47.496H37.6533C38.9377 47.496 39.2327 47.1923 39.2327 46.1769C39.2327 43.131 37.9918 41.621 35.7702 41.621Z" fill="#67686B"/>
<path d="M90.898 41.9924C90.143 42.1399 89.6918 42.409 89.2752 43.3462C88.9715 44.0231 88.633 44.9256 88.1818 46.4703L84.0424 59.7302C83.9643 59.9211 83.9296 59.9905 83.6692 59.9905H80.8489C80.6233 59.9905 80.5452 59.9558 80.4757 59.7302L76.2582 47.043H76.1454L71.7023 59.7302C71.6242 59.9211 71.5895 59.9905 71.3291 59.9905H68.5435C68.3179 59.9905 68.2398 59.9558 68.1704 59.7302L63.3541 45.3074C62.3735 42.3742 62.0003 42.1833 60.9416 41.9924L60.4556 41.8797C60.23 41.845 60.1953 41.8015 60.1953 41.5759V40.3349C60.1953 40.0746 60.23 40.0312 60.4556 40.0312H69.9493C70.175 40.0312 70.2097 40.0659 70.2097 40.3349V41.5759C70.2097 41.8015 70.175 41.8797 69.9493 41.8797L69.1596 41.9577C68.5956 41.9924 68.3352 42.1486 68.3352 42.7127C68.3352 43.1986 68.5262 43.997 68.8993 45.3074L71.3465 53.8205H71.3812L73.9412 46.5136C74.1668 45.802 74.5834 44.5177 74.5834 43.4243C74.5834 42.6693 74.3578 42.0271 73.6028 41.9577L73.004 41.8797C72.7784 41.8797 72.7436 41.8015 72.7436 41.5759V40.3349C72.7436 40.0746 72.7784 40.0312 73.004 40.0312H81.439C81.6646 40.0312 81.6646 40.0659 81.6646 40.3349V41.5759C81.6646 41.8015 81.6646 41.8363 81.439 41.8797L80.6493 41.9577C80.0852 41.9924 79.7815 42.218 79.7815 42.7908C79.7815 43.2767 80.0071 44.0317 80.4237 45.3161L83.5477 53.8293H83.5825L85.5437 46.3748C85.8474 45.2466 86.073 43.9623 86.073 43.0945C86.073 42.4957 85.8821 42.0445 85.1705 41.9664L84.4155 41.8883C84.1899 41.8883 84.1552 41.8102 84.1552 41.5845V40.3436C84.1552 40.0833 84.1899 40.0399 84.4155 40.0399H91.3406C91.5662 40.0399 91.5662 40.0746 91.5662 40.3436V41.5845C91.5662 41.8102 91.5315 41.8449 91.3406 41.8883L90.924 42.0011L90.898 41.9924Z" fill="#67686B"/>
<path d="M101.906 59.9923C95.2413 59.9923 92.0391 56.1913 92.0391 50.1254C92.0391 44.0595 95.4669 39.5469 102.21 39.5469C108.952 39.5469 112.076 43.2351 112.076 49.3357C112.076 55.4363 108.614 59.9923 101.906 59.9923ZM102.053 41.621C98.7038 41.621 97.8013 45.1269 97.8013 50.056C97.8013 54.5772 98.6691 57.9269 102.019 57.9269C105.368 57.9269 106.349 54.3863 106.349 49.4572C106.349 44.9013 105.447 41.621 102.053 41.621Z" fill="#67686B"/>
<path d="M114.289 59.5033C114.063 59.5033 114.028 59.4686 114.028 59.1996V57.9586C114.028 57.733 114.063 57.6983 114.289 57.6549L115.868 57.5768C116.849 57.4987 116.883 57.1602 116.883 54.1837V46.1652C116.883 42.2515 116.467 42.0259 115.451 41.9477L114.28 41.8696C114.054 41.8696 114.02 41.7915 114.02 41.5659V40.3249C114.02 40.0646 114.054 40.0212 114.28 40.0212H121.17C121.396 40.0212 121.509 40.134 121.509 40.4378V44.0131H121.621C122.862 41.375 124.667 39.5352 127.123 39.5352C129.345 39.5352 130.629 41.1927 130.629 43.4143C130.629 45.1499 129.649 45.9396 127.991 45.9396C126.334 45.9396 125.544 44.9243 125.544 43.8309C125.544 43.5271 125.622 43.1193 125.691 42.8155H125.466C124.069 42.8155 123.097 44.1346 122.073 45.983V54.1924C122.073 57.1689 122.107 57.5421 123.088 57.5855L125.535 57.6636C125.761 57.6636 125.796 57.7417 125.796 57.9673V59.2083C125.796 59.4686 125.761 59.512 125.535 59.512H114.271L114.289 59.5033Z" fill="#67686B"/>
<path d="M145.811 59.5044C145.55 59.5044 145.472 59.4263 145.325 59.2006L140.049 50.6181C138.999 51.7116 138.617 52.3885 138.617 53.6641V54.341C138.617 57.1613 138.651 57.5084 139.632 57.5779L140.838 57.656C141.064 57.6907 141.099 57.7341 141.099 57.9597V59.2006C141.099 59.461 141.064 59.5044 140.838 59.5044H130.824C130.598 59.5044 130.562 59.4697 130.562 59.2006V57.9597C130.562 57.7341 130.598 57.6994 130.824 57.656L132.402 57.5779C133.383 57.4998 133.419 57.1613 133.419 54.1848V36.9329C133.419 33.9217 133.383 33.618 132.402 33.5399L130.824 33.4617C130.598 33.427 130.562 33.3837 130.562 33.158V31.9171C130.562 31.6567 130.598 31.6133 130.824 31.6133H138.277C138.503 31.6133 138.617 31.7261 138.617 32.0299V49.5421H138.65C139.18 48.5267 140.231 47.3552 142.418 45.0989C143.433 44.0489 143.928 43.5195 143.928 42.8427C143.928 42.4261 143.666 42.053 142.911 41.9749L141.975 41.862C141.749 41.862 141.715 41.7839 141.715 41.5583V40.3174C141.715 40.057 141.749 40.0136 141.975 40.0136H150.974C151.2 40.0136 151.2 40.0483 151.2 40.3174V41.5583C151.2 41.7839 151.2 41.862 150.974 41.862L150.331 41.9749C148.934 42.1658 147.918 42.7645 145.471 45.177L143.702 46.8692L148.258 54.2108C149.915 56.8836 150.332 57.4911 151.122 57.5605L151.65 57.6386C151.876 57.6733 151.911 57.7167 151.911 57.9424V59.1833C151.911 59.4436 151.911 59.487 151.686 59.487H145.811V59.5044Z" fill="#67686B"/>
<path d="M60.1369 56.8335L59.3472 56.0091C59.1216 55.8182 59.0435 55.8182 58.896 55.9744C58.41 56.5384 57.6897 57.0244 56.7525 57.0244C54.7218 57.0244 54.0797 55.445 54.0797 52.885V42.5669H58.3319C58.5575 42.5669 58.6356 42.5322 58.6356 42.2632V40.3019C58.6356 40.0763 58.5575 40.0416 58.3319 40.0416H54.0797V34.1319C54.0797 33.9063 54.045 33.8281 53.8888 33.8281H53.29C53.0296 33.8281 52.9515 33.9062 52.7259 34.0885C51.7106 34.8435 50.3915 35.5985 49.1506 36.1191C48.9597 36.1973 48.8902 36.31 48.8902 36.5357V40.0416L46.2955 40.3019C46.0699 40.3366 46.0352 40.38 46.0352 40.6057V42.2632C46.0352 42.4975 46.0699 42.5495 46.2608 42.5582H51.6672L48.8902 44.0161V53.8222C48.8902 58.1873 51.485 60.001 54.3921 60.001C56.8046 60.001 58.8352 59.0637 60.189 57.25C60.3365 57.0591 60.3018 56.9897 60.1543 56.8335H60.1369Z" fill="#67686B"/>
<path d="M12.4095 28.9416H0.305465C0.0763662 28.9416 0 28.9034 0 28.6743V27.9489C0 27.7198 0.0763662 27.6816 0.305465 27.6816L2.02371 27.6052C2.9401 27.567 2.97828 27.3379 2.97828 24.436V7.67358C2.97828 4.77166 2.9401 4.54256 2.02371 4.50438L0.305465 4.42801C0.0763662 4.42801 0 4.38983 0 4.16073V3.43525C0 3.20615 0.0763662 3.16797 0.305465 3.16797H12.5623C16.8006 3.16797 21.6498 4.61893 21.6498 10.4992C21.6498 16.2648 17.3351 18.2122 11.875 18.2122H8.85849V24.436C8.85849 27.3379 8.89667 27.6052 9.81307 27.6052L12.4095 27.6816C12.6386 27.6816 12.715 27.7198 12.715 27.9489V28.6743C12.715 28.9034 12.6386 28.9416 12.4095 28.9416ZM10.8822 16.723C14.0514 16.723 15.5024 15.1575 15.5024 10.6519C15.5024 5.76442 13.8605 4.65711 11.0349 4.65711H8.85849V16.723H10.8822Z" fill="#C01823"/>
<path d="M34.8724 28.9441H23.5321C23.303 28.9441 23.2266 28.9059 23.2266 28.6768V28.0277C23.2266 27.7986 23.303 27.7604 23.5321 27.7604L25.1357 27.6841C26.0903 27.6841 26.1285 27.455 26.1285 24.5531V14.2818C26.1285 10.6544 25.7849 10.5017 24.8303 10.4635L23.5321 10.4253C23.303 10.3871 23.2266 10.3489 23.2266 10.1198V9.47069C23.2266 9.24159 23.303 9.20341 23.5321 9.20341H30.5577C30.825 9.20341 30.9014 9.35614 30.9014 9.66161V13.0599H31.0159C32.2378 10.3489 33.9942 8.70703 36.3234 8.70703C38.538 8.70703 40.0272 10.5017 40.0272 12.6781C40.0272 14.32 38.9962 15.0455 37.3543 15.0455C35.6743 15.0455 35.0252 14.0527 35.0252 12.9454C35.0252 12.2199 35.2925 11.4562 35.7507 10.8071C35.5979 10.7689 35.407 10.7308 35.2543 10.7308C33.7269 10.7308 32.5051 12.0672 31.3978 14.3963V24.5531C31.3978 27.455 31.436 27.6841 32.3524 27.6841L34.8724 27.7604C35.1015 27.7604 35.1779 27.7986 35.1779 28.0277V28.6768C35.1779 28.9059 35.1015 28.9441 34.8724 28.9441Z" fill="#C01823"/>
<path d="M60.7743 18.6347C60.7743 24.8967 57.1088 29.4405 50.4649 29.4405C43.9356 29.4405 40.4609 25.584 40.4609 19.4365C40.4609 13.1745 44.1265 8.70703 50.7704 8.70703C57.2997 8.70703 60.7743 12.449 60.7743 18.6347ZM54.9705 18.7492C54.9705 13.3272 54.0541 10.0816 50.6558 10.0816C47.2575 10.0816 46.3029 13.5181 46.3029 19.3602C46.3029 24.744 47.2193 28.0659 50.6176 28.0659C54.0159 28.0659 54.9705 24.5149 54.9705 18.7492Z" fill="#C01823"/>
<path d="M73.9848 28.943H62.6062C62.3771 28.943 62.3008 28.9048 62.3008 28.6757V28.0266C62.3008 27.7975 62.3771 27.7593 62.6062 27.7593L64.2481 27.683C65.2027 27.683 65.2409 27.4539 65.2409 24.552V10.806H62.6062C62.3771 10.806 62.3008 10.7678 62.3008 10.5387V9.66054C62.3008 9.43143 62.3771 9.39325 62.6062 9.35507L65.2409 9.20234V7.71319C65.2409 3.55123 68.4482 0.6875 73.2593 0.6875C76.0467 0.6875 78.7195 2.13846 78.7195 4.54399C78.7195 5.99495 77.7267 6.68225 76.1994 6.68225C74.5575 6.68225 73.9084 5.80404 73.9084 4.69673C73.9084 3.81851 74.2139 3.05485 74.6721 2.253C74.3284 2.13846 73.8321 2.02391 73.4502 2.02391C71.2738 2.02391 70.4719 3.55123 70.4719 6.26223V9.20234H74.7866C75.0157 9.20234 75.0921 9.24052 75.0921 9.46962V10.5387C75.0921 10.7678 75.0157 10.806 74.7866 10.806H70.4719V24.552C70.4719 27.4539 70.5101 27.683 71.4647 27.683L73.9848 27.7593C74.2139 27.7593 74.2521 27.7975 74.2521 28.0266V28.6757C74.2521 28.9048 74.2139 28.943 73.9848 28.943Z" fill="#C01823"/>
<path d="M93.9147 23.4457C93.2274 26.6531 90.5546 29.4405 85.7817 29.4405C79.5579 29.4405 75.625 25.6222 75.625 19.3983C75.625 13.4418 79.176 8.70703 85.5144 8.70703C89.9819 8.70703 94.0293 11.2271 94.0293 16.8782V17.1455C94.0293 18.1001 93.7238 18.4056 92.5401 18.4056H81.4288V19.0929C81.4288 23.8658 82.6507 27.4168 87.0799 27.4168C90.1346 27.4168 91.9674 25.6604 92.6929 23.2166C92.7692 22.9875 92.8456 22.9112 93.0747 22.9494L93.7238 23.0639C93.9529 23.1021 93.9911 23.2166 93.9147 23.4457ZM88.76 15.58C88.76 11.7999 87.6145 10.0435 85.209 10.0435C82.3834 10.0435 81.4288 12.6399 81.4288 17.031H87.0799C88.4163 17.031 88.76 16.7255 88.76 15.58Z" fill="#C01823"/>
<path d="M111.25 23.2548C111.25 27.035 107.699 29.4405 103.27 29.4405C101.361 29.4405 99.4523 29.0205 98.154 28.1805L98.0777 28.8678C98.0013 29.0969 98.0013 29.1732 97.7722 29.1732H97.2376C97.0085 29.1732 96.9704 29.0969 96.9704 28.8678L96.7031 22.6057C96.7031 22.3766 96.7413 22.3003 96.9704 22.3003H97.6576C97.8868 22.3003 97.9249 22.3766 97.9631 22.6057L98.0395 23.3312C98.345 25.6604 100.368 28.1423 103.27 28.1423C105.561 28.1423 106.974 27.1495 106.974 25.3549C106.974 23.2166 104.95 22.2239 102.507 21.1166C99.7195 19.7802 97.0085 18.2528 97.0085 14.5491C97.0085 11.2653 99.7195 8.70703 103.996 8.70703C105.599 8.70703 107.279 9.12704 108.387 9.8907L108.501 9.24159C108.539 9.01249 108.578 8.93612 108.769 8.93612H109.303C109.532 8.93612 109.57 9.01249 109.57 9.24159V15.0073C109.57 15.2746 109.532 15.3509 109.303 15.3509H108.654C108.425 15.3509 108.349 15.2746 108.349 15.0073V14.5491C108.272 11.7999 106.287 10.0053 104.034 10.0053C102.125 10.0053 101.17 10.9599 101.17 12.3726C101.17 14.2818 102.927 15.1982 105.523 16.4582C108.654 17.9856 111.25 19.3602 111.25 23.2548Z" fill="#C01823"/>
<path d="M128.442 23.2548C128.442 27.035 124.891 29.4405 120.462 29.4405C118.553 29.4405 116.644 29.0205 115.346 28.1805L115.269 28.8678C115.193 29.0969 115.193 29.1732 114.964 29.1732H114.429C114.2 29.1732 114.162 29.0969 114.162 28.8678L113.895 22.6057C113.895 22.3766 113.933 22.3003 114.162 22.3003H114.849C115.078 22.3003 115.116 22.3766 115.155 22.6057L115.231 23.3312C115.536 25.6604 117.56 28.1423 120.462 28.1423C122.753 28.1423 124.166 27.1495 124.166 25.3549C124.166 23.2166 122.142 22.2239 119.698 21.1166C116.911 19.7802 114.2 18.2528 114.2 14.5491C114.2 11.2653 116.911 8.70703 121.188 8.70703C122.791 8.70703 124.471 9.12704 125.579 9.8907L125.693 9.24159C125.731 9.01249 125.77 8.93612 125.96 8.93612H126.495C126.724 8.93612 126.762 9.01249 126.762 9.24159V15.0073C126.762 15.2746 126.724 15.3509 126.495 15.3509H125.846C125.617 15.3509 125.54 15.2746 125.54 15.0073V14.5491C125.464 11.7999 123.479 10.0053 121.226 10.0053C119.317 10.0053 118.362 10.9599 118.362 12.3726C118.362 14.2818 120.118 15.1982 122.715 16.4582C125.846 17.9856 128.442 19.3602 128.442 23.2548Z" fill="#C01823"/>
<path d="M141.048 28.9428H130.586C130.357 28.9428 130.281 28.9046 130.281 28.6755V28.0264C130.281 27.7973 130.357 27.7591 130.586 27.7591L132.19 27.6828C133.144 27.6828 133.182 27.4537 133.182 24.5518V13.6314C133.182 10.6913 133.144 10.4622 132.19 10.4622L130.586 10.424C130.357 10.424 130.281 10.3476 130.281 10.1185V9.46942C130.281 9.24032 130.357 9.20214 130.586 9.20214H138.108C138.337 9.20214 138.452 9.35487 138.452 9.66034V24.5518C138.452 27.4537 138.49 27.6828 139.406 27.6828L141.048 27.7591C141.277 27.7591 141.354 27.7973 141.354 28.0264V28.6755C141.354 28.9046 141.277 28.9428 141.048 28.9428ZM138.795 2.74918C138.795 4.35288 137.574 5.53655 135.855 5.53655C134.099 5.53655 132.801 4.39106 132.801 2.74918C132.801 1.14549 134.061 0 135.779 0C137.535 0 138.795 1.14549 138.795 2.74918Z" fill="#C01823"/>
<path d="M163.278 18.6347C163.278 24.8967 159.613 29.4405 152.969 29.4405C146.439 29.4405 142.965 25.584 142.965 19.4365C142.965 13.1745 146.63 8.70703 153.274 8.70703C159.803 8.70703 163.278 12.449 163.278 18.6347ZM157.474 18.7492C157.474 13.3272 156.558 10.0816 153.16 10.0816C149.761 10.0816 148.807 13.5181 148.807 19.3602C148.807 24.744 149.723 28.0659 153.121 28.0659C156.52 28.0659 157.474 24.5149 157.474 18.7492Z" fill="#C01823"/>
<path d="M188.671 28.9441H178.591C178.362 28.9441 178.285 28.9059 178.285 28.6768V28.0277C178.285 27.7986 178.362 27.7604 178.591 27.7604L179.813 27.6841C180.767 27.6459 180.805 27.455 180.805 24.5531V15.1982C180.805 12.1435 179.507 11.0744 177.331 11.0744C175.231 11.0744 173.971 12.2963 173.054 14.0527V24.5531C173.054 27.455 173.092 27.6459 174.009 27.6841L175.269 27.7604C175.498 27.7604 175.574 27.7986 175.574 28.0277V28.6768C175.574 28.9059 175.498 28.9441 175.269 28.9441H165.188C164.959 28.9441 164.883 28.9059 164.883 28.6768V28.0277C164.883 27.7986 164.959 27.7604 165.188 27.7604L166.792 27.6841C167.747 27.6841 167.785 27.455 167.785 24.5531V13.6327C167.785 10.6926 167.747 10.5017 166.792 10.4635L165.188 10.4253C164.959 10.3871 164.883 10.3489 164.883 10.1198V9.47069C164.883 9.24159 164.959 9.20341 165.188 9.20341H172.367C172.634 9.20341 172.711 9.35614 172.711 9.66161V12.5636H172.825C173.971 10.3871 176.147 8.70703 179.584 8.70703C182.638 8.70703 186.075 10.158 186.075 15.3509V24.5531C186.075 27.455 186.113 27.6841 187.029 27.6841L188.671 27.7604C188.9 27.7604 188.977 27.7986 188.977 28.0277V28.6768C188.977 28.9059 188.9 28.9441 188.671 28.9441Z" fill="#C01823"/>
<path d="M207.543 25.0876C207.543 27.0731 207.887 27.7223 208.651 27.7223C209.223 27.7223 209.643 27.2641 209.911 26.6913C209.987 26.5004 210.102 26.4622 210.292 26.5386L210.751 26.7295C210.942 26.8059 210.98 26.9204 210.865 27.1495C210.331 28.5241 209.032 29.4405 206.932 29.4405C204.527 29.4405 202.885 28.1805 202.618 25.7749H202.503C201.128 28.1805 199.143 29.4405 196.356 29.4405C193.186 29.4405 190.781 27.7223 190.781 24.3621C190.781 20.9257 192.766 19.5511 197.425 18.1765C202.274 16.7637 202.312 16.4582 202.312 15.2746V14.3582C202.312 11.4181 200.594 10.3107 198.303 10.3107C197.157 10.3107 196.126 10.6162 195.248 11.0744C195.783 11.9526 195.974 12.869 195.974 13.5945C195.974 14.6636 195.477 15.58 193.912 15.58C192.461 15.58 191.545 14.9691 191.545 13.5945C191.545 11.2271 195.286 8.70703 199.83 8.70703C203.839 8.70703 207.543 10.4253 207.543 15.0455V25.0876ZM202.312 24.4003V17.9092C201.052 18.291 199.792 18.7492 198.761 19.2456C196.928 20.1238 196.165 21.3075 196.165 23.4076C196.165 25.6222 197.043 27.035 198.723 27.035C200.25 27.035 201.472 25.9658 202.312 24.4003Z" fill="#C01823"/>
<path d="M222.26 28.943H211.798C211.569 28.943 211.492 28.9048 211.492 28.6757V28.0266C211.492 27.7975 211.569 27.7593 211.798 27.7593L213.401 27.683C214.356 27.683 214.394 27.4539 214.394 24.552V5.07856C214.394 2.17664 214.356 1.94754 213.401 1.94754L211.798 1.87117C211.569 1.87117 211.492 1.83299 211.492 1.60389V0.954781C211.492 0.725682 211.569 0.6875 211.798 0.6875H219.32C219.549 0.6875 219.663 0.84023 219.663 1.14569V24.552C219.663 27.4539 219.702 27.683 220.618 27.683L222.26 27.7593C222.489 27.7593 222.565 27.7975 222.565 28.0266V28.6757C222.565 28.9048 222.489 28.943 222.26 28.943Z" fill="#C01823"/>
</g>
<path d="M230.231 29.1063C228.455 29.1063 226.97 28.6626 225.895 27.9969L225.818 28.6284C225.741 28.8162 225.707 28.8503 225.519 28.8503H224.521C224.265 28.8503 224.222 28.8503 224.222 28.6284L224 22.774C224 22.5522 224.034 22.518 224.299 22.518H225.562C225.784 22.518 225.818 22.5522 225.861 22.774L226.006 23.6275C226.45 25.8122 228.157 27.2203 230.265 27.2203C232.373 27.2203 233.713 26.3669 233.713 24.7027C233.713 23.0386 231.827 22.1084 229.565 21.0331C226.902 19.77 224.265 18.2168 224.265 14.7008C224.265 11.5517 226.748 9 230.965 9C232.484 9 234.003 9.40963 234.814 9.92167L234.959 9.47791C234.993 9.29016 235.036 9.22189 235.258 9.22189H236.222C236.479 9.22189 236.521 9.25602 236.521 9.47791V14.9227C236.521 15.1104 236.487 15.1446 236.222 15.1446H235.002C234.78 15.1446 234.703 15.1104 234.703 14.9227L234.669 14.2229C234.524 12.1149 232.894 10.886 231.076 10.886C229.446 10.886 228.413 11.5858 228.413 12.9598C228.413 14.4021 229.855 15.1787 232.373 16.4417C235.745 18.1059 238.075 19.3689 238.075 23.0301C238.075 26.6912 235.036 29.1063 230.222 29.1063H230.231Z" fill="#C01823"/>
<defs>
<clipPath id="clip0_3478_311">
<rect width="223" height="60" fill="white"/>
</clipPath>
</defs>
</svg>
